<svg width="60" height="40" viewBox="0 0 60 40" fill="none" xmlns="http://www.w3.org/2000/svg">
<rect width="60" height="40" fill="#E4EBF6"/>
<path d="M24.085 26.5H22.8618V19.4541C22.8618 18.8975 22.896 18.2163 22.9644 17.4106H22.9351C22.8179 17.8843 22.7129 18.2236 22.6201 18.4287L19.0312 26.5H18.4307L14.8491 18.4873C14.7466 18.2529 14.6416 17.894 14.5342 17.4106H14.5049C14.5439 17.8306 14.5635 18.5166 14.5635 19.4688V26.5H13.377V15.9971H15.0029L18.2256 23.3213C18.4746 23.8828 18.6357 24.3027 18.709 24.5811H18.7529C18.9629 24.0049 19.1313 23.5752 19.2583 23.292L22.5469 15.9971H24.085V26.5ZM39.1547 15.9971L36.1884 26.5H34.7455L32.5849 18.8242C32.4921 18.4971 32.4359 18.1406 32.4164 17.7549H32.3871C32.3578 18.1162 32.2943 18.4678 32.1967 18.8096L30.0214 26.5H28.5932L25.517 15.9971H26.872L29.1059 24.0537C29.1986 24.3906 29.2572 24.7422 29.2816 25.1084H29.3183C29.3427 24.8496 29.4184 24.498 29.5453 24.0537L31.8671 15.9971H33.0463L35.2729 24.1123C35.351 24.3906 35.4096 24.7178 35.4486 25.0938H35.4779C35.4975 24.8398 35.5634 24.5029 35.6757 24.083L37.8217 15.9971H39.1547ZM46.6365 26.5H45.4354V22.1787C45.4354 20.6162 44.8543 19.835 43.6922 19.835C43.1063 19.835 42.6131 20.062 42.2127 20.5161C41.8123 20.9653 41.6121 21.5439 41.6121 22.252V26.5H40.4109V15.3965H41.6121V20.2451H41.6414C42.2176 19.2979 43.0379 18.8242 44.1023 18.8242C45.7918 18.8242 46.6365 19.8423 46.6365 21.8784V26.5Z" fill="#6E84A3"/>
</svg>
