<svg width="1200" height="225" viewBox="0 0 1200 225" fill="none" xmlns="http://www.w3.org/2000/svg">
<path d="M1191 26C1188.51 26 1186.39 25.1972 1184.63 23.5917C1182.88 21.9862 1182 20.0459 1182 17.7706C1182 15.5046 1182.88 13.5596 1184.63 11.9358C1186.39 10.3119 1188.51 9.5 1191 9.5C1193.48 9.5 1195.59 10.3119 1197.36 11.9358C1199.12 13.5596 1200 15.5046 1200 17.7706C1200 20.0459 1199.12 21.9862 1197.36 23.5917C1195.59 25.1972 1193.48 26 1191 26ZM1191.01 10.8761C1188.98 10.8761 1187.23 11.555 1185.77 12.9128C1184.33 14.2706 1183.6 15.8945 1183.6 17.7844C1183.6 19.6743 1184.33 21.289 1185.77 22.6284C1187.23 23.9587 1188.98 24.6239 1191.01 24.6239C1193.06 24.6239 1194.81 23.9587 1196.24 22.6284C1197.68 21.289 1198.4 19.6743 1198.4 17.7844C1198.4 15.8945 1197.68 14.2706 1196.24 12.9128C1194.81 11.555 1193.06 10.8761 1191.01 10.8761ZM1195.6 22.8624H1192.98L1191.89 20.4679C1191.34 19.2752 1190.74 18.6789 1190.09 18.6789H1189.44V22.8624H1187.3V12.5138H1190.66C1192.05 12.5138 1193.13 12.7661 1193.88 13.2706C1194.63 13.7752 1195.01 14.4633 1195.01 15.3349C1195.01 16.0413 1194.78 16.6468 1194.31 17.1514C1193.86 17.6468 1193.18 17.9817 1192.28 18.156V18.1972C1192.9 18.3165 1193.52 18.9541 1194.13 20.1101L1195.6 22.8624ZM1189.44 14.1651V17.1101H1190.66C1192.03 17.1101 1192.72 16.6147 1192.72 15.6239C1192.72 15.1193 1192.53 14.7523 1192.16 14.5229C1191.79 14.2844 1191.21 14.1651 1190.42 14.1651H1189.44Z" fill="#666666"/>
<path d="M643.842 199.685L644.35 199.398V172.47H623.539V180.397H635.792V194.466C632.875 195.933 629.433 196.684 625.437 196.684C619.293 196.684 614.531 194.752 611.031 190.962C607.525 187.14 605.715 181.844 605.715 174.952C605.715 168.297 607.651 162.966 611.458 158.866C615.262 154.769 620.128 152.713 626.139 152.713C632.172 152.713 637.34 154.104 641.683 156.848L643.219 157.818V148.12L642.649 147.848C638.341 145.791 633.071 144.787 626.881 144.787C618.232 144.787 611.021 147.66 605.329 153.429C599.659 159.175 596.845 166.534 596.845 175.42C596.845 184.099 599.37 191.174 604.498 196.541L604.5 196.543C609.655 201.911 616.393 204.571 624.617 204.571C631.647 204.571 638.062 202.946 643.842 199.685Z" fill="#666666"/>
<path d="M675.756 169.975L677.366 171.209V161.883L676.746 161.628C675.682 161.191 674.254 161.007 672.54 161.007C669.974 161.007 667.655 161.893 665.613 163.62C664.574 164.486 663.68 165.52 662.926 166.715V161.709H654.525V203.635H662.926V182.282C662.926 177.964 663.812 174.683 665.473 172.335C667.166 169.977 669.172 168.895 671.526 168.895C673.517 168.895 674.879 169.303 675.756 169.975Z" fill="#666666"/>
<path fill-rule="evenodd" clip-rule="evenodd" d="M685.118 198.679L685.123 198.685C688.879 202.631 693.879 204.571 700.014 204.571C706.305 204.571 711.413 202.578 715.222 198.524C719.047 194.455 720.918 189.083 720.918 182.516C720.918 175.847 719.193 170.497 715.622 166.596C712.064 162.682 707.128 160.773 700.951 160.773C694.491 160.773 689.256 162.731 685.365 166.73C681.468 170.733 679.579 176.248 679.579 183.14C679.579 189.501 681.398 194.715 685.118 198.679ZM691.488 172.013L691.485 172.017C689.294 174.563 688.137 178.15 688.137 182.906C688.137 187.467 689.3 190.936 691.514 193.433C693.721 195.923 696.674 197.19 700.483 197.19C704.384 197.19 707.248 195.941 709.233 193.538L709.236 193.533C711.272 191.098 712.36 187.551 712.36 182.75C712.36 177.895 711.271 174.308 709.233 171.846L709.23 171.842C707.244 169.414 704.38 168.154 700.483 168.154C696.628 168.154 693.668 169.456 691.488 172.013Z" fill="#666666"/>
<path d="M751.333 202.62C752.74 201.792 753.979 200.709 755.054 199.383V203.635H763.455V161.709H755.054V185.713C755.054 189.241 754.095 192.006 752.257 194.101C750.45 196.165 748.165 197.19 745.323 197.19C742.333 197.19 740.241 196.229 738.859 194.424C737.437 192.569 736.645 189.669 736.645 185.557V161.709H728.282V186.571C728.282 192.353 729.493 196.876 732.087 199.964C734.71 203.085 738.601 204.571 743.566 204.571C746.499 204.571 749.099 203.933 751.333 202.62Z" fill="#666666"/>
<path fill-rule="evenodd" clip-rule="evenodd" d="M679.395 93.236L679.4 93.2412C685.24 99.3765 693.022 102.412 702.635 102.412C712.497 102.412 720.447 99.2935 726.371 92.9886C732.326 86.6533 735.261 78.2737 735.261 67.9556C735.261 57.4596 732.548 49.1163 727.001 43.0572C721.481 36.9838 713.81 33.9953 704.123 33.9953C693.986 33.9953 685.832 37.0632 679.78 43.2817C673.723 49.505 670.753 58.1052 670.753 68.9469C670.753 78.936 673.607 87.0669 679.395 93.236ZM688.639 50.8848L688.636 50.8883C685.035 55.0726 683.173 60.9261 683.173 68.5752C683.173 75.9226 685.049 81.5884 688.688 85.6935C692.32 89.7906 697.181 91.8619 703.379 91.8619C709.717 91.8619 714.451 89.8235 717.738 85.8439L717.742 85.8395C721.095 81.827 722.842 76.0368 722.842 68.3274C722.842 60.5331 721.094 54.6796 717.739 50.6257L717.735 50.6213C714.447 46.6017 709.713 44.5451 703.379 44.5451C697.103 44.5451 692.229 46.674 688.639 50.8848Z" fill="#666666"/>
<path d="M788.548 49.1841C790.827 52.3027 792.046 57.1022 792.046 63.7427V100.925H804.217V61.1405C804.217 52.5474 802.352 45.8216 798.472 41.115C794.565 36.3352 788.941 33.9953 781.761 33.9953C773.278 33.9953 766.559 37.3744 761.678 44.0618V35.4822H749.506V100.925H761.678V63.7427C761.678 58.1199 763.269 53.553 766.393 49.9631C769.552 46.3397 773.494 44.5451 778.288 44.5451C782.953 44.5451 786.312 46.1241 788.548 49.1841Z" fill="#666666"/>
<path d="M659.819 97.0916L660.353 96.8101V84.331L658.832 85.2541C652.482 89.1091 644.938 91.0564 636.16 91.0564C626.776 91.0564 619.261 87.9501 613.518 81.7752C607.815 75.5577 604.916 67.1881 604.916 56.5558C604.916 45.3488 608.019 36.5048 614.135 29.9145C620.293 23.3231 628.306 20.0106 638.268 20.0106C645.797 20.0106 652.655 21.7476 658.864 25.2119L660.353 26.0426V12.5965L659.755 12.3336C654.049 9.82335 646.914 8.59343 638.392 8.59343C624.999 8.59343 613.881 13.0652 605.121 22.0294C596.352 31.0027 592 42.7511 592 57.1754C592 70.5956 595.868 81.5332 603.679 89.889C611.502 98.2566 621.91 102.412 634.796 102.412C644.707 102.412 653.064 100.657 659.819 97.0916Z" fill="#666666"/>
<path fill-rule="evenodd" clip-rule="evenodd" d="M795.782 160.773C790.38 160.773 786.035 162.785 782.812 166.757V161.709H774.41V222H782.812V199.921C782.812 199.921 785.011 204.921 793.948 204.921C796.618 204.921 804.851 204.92 809.683 197.567C814.516 190.213 813.687 181.385 813.687 181.385C813.687 170.422 808.621 166.527 808.621 166.527L808.62 166.526C805.518 162.674 801.195 160.773 795.782 160.773ZM785.011 194.759C782.878 192.446 781.811 189.638 781.811 186.337V180.762C781.811 176.862 782.943 173.626 785.206 171.053C787.47 168.453 790.462 167.154 794.182 167.154C797.694 167.154 800.478 168.414 802.534 170.936C804.589 173.457 805.617 176.94 805.617 181.385C805.617 186.662 804.511 190.782 802.299 193.745C800.114 196.709 797.083 198.19 793.206 198.19C789.902 198.19 787.171 197.047 785.011 194.759Z" fill="#666666"/>
<path fill-rule="evenodd" clip-rule="evenodd" d="M819.189 85.9239L817.594 84.7462V98.2364L818.129 98.5175C823.095 101.126 828.925 102.412 835.586 102.412C838.968 102.412 842.212 102.031 845.313 101.267C848.428 100.5 851.203 99.3216 853.624 97.7232C856.06 96.1153 858.006 94.0866 859.45 91.641C860.963 89.149 861.701 86.239 861.701 82.9489C861.701 80.281 861.249 77.9232 860.308 75.9053C859.423 73.9183 858.141 72.1769 856.474 70.6848C854.826 69.1696 852.848 67.8413 850.551 66.6931C848.282 65.5179 845.728 64.3893 842.892 63.3058C840.792 62.4829 838.921 61.7229 837.279 61.0256C835.683 60.3478 834.351 59.6007 833.272 58.7917C832.216 58.0008 831.43 57.1167 830.887 56.1448C830.405 55.2112 830.137 54.0003 830.137 52.4667C830.137 51.2987 830.391 50.2678 830.883 49.353C831.428 48.3748 832.173 47.5367 833.13 46.8361C834.135 46.1308 835.346 45.5784 836.777 45.1919L836.789 45.1887L836.801 45.1851C838.222 44.7629 839.84 44.5451 841.663 44.5451C847.563 44.5451 852.743 46.0259 857.237 48.9664L858.786 49.98V37.1915L858.187 36.9293C853.701 34.9657 848.641 33.9953 843.027 33.9953C839.841 33.9953 836.736 34.3986 833.715 35.2064L833.711 35.2073C830.719 36.0187 828.032 37.2401 825.658 38.8776C823.267 40.4861 821.345 42.5135 819.905 44.9543C818.438 47.3992 817.718 50.2031 817.718 53.3341C817.718 55.8645 818.082 58.1188 818.839 60.0759L818.843 60.0851L818.847 60.0941C819.64 62.0331 820.787 63.7719 822.28 65.3068L822.29 65.3172L822.3 65.3273C823.822 66.8048 825.676 68.1362 827.849 69.3278L827.859 69.3334L827.869 69.3388C830.055 70.4727 832.567 71.6016 835.402 72.7263L835.41 72.7292C837.426 73.5104 839.296 74.2701 841.02 75.0084L841.033 75.014L841.047 75.0192C842.765 75.6979 844.22 76.4675 845.424 77.321L845.43 77.3253L845.436 77.3295C846.661 78.1707 847.592 79.1273 848.253 80.1926L848.264 80.2099L848.276 80.2267C848.927 81.1853 849.281 82.404 849.281 83.9402C849.281 86.6228 848.298 88.5206 846.378 89.7994C844.387 91.1259 841.273 91.8619 836.888 91.8619C830.454 91.8619 824.563 89.8907 819.189 85.9239Z" fill="#666666"/>
<path fill-rule="evenodd" clip-rule="evenodd" d="M909.762 99.3925C912.402 97.84 914.666 95.7007 916.562 92.9967V100.925H928.734V35.4822H916.562V73.036C916.562 78.7529 915.006 83.2938 911.973 86.7512C908.986 90.1625 905.191 91.8619 900.51 91.8619C895.621 91.8619 892.104 90.2801 889.771 87.2356C887.4 84.1406 886.133 79.38 886.133 72.7882V35.4822H874.023V74.399C874.023 83.5189 875.935 90.545 879.932 95.3015C883.956 100.091 889.95 102.412 897.72 102.412C902.292 102.412 906.318 101.418 909.762 99.3925Z" fill="#666666"/>
<path fill-rule="evenodd" clip-rule="evenodd" d="M947.32 100.925H959.491V5H947.32V100.925Z" fill="#666666"/>
<path fill-rule="evenodd" clip-rule="evenodd" d="M1009.02 100.181L1009.53 99.8956V88.6226L1007.93 89.8336C1006.26 91.0936 1004.27 91.738 1001.9 91.738C998.714 91.738 996.672 90.8768 995.488 89.3894C994.258 87.8452 993.535 85.0978 993.535 80.9044V46.1559H1009.53V35.4822H993.535V16.3355L981.363 20.2655V35.4822H970.449V46.1559H981.363V82.7011C981.363 89.0255 982.78 93.9556 985.789 97.3087C988.817 100.683 993.301 102.288 999.045 102.288C1003.07 102.288 1006.42 101.612 1009.02 100.181Z" fill="#666666"/>
<path fill-rule="evenodd" clip-rule="evenodd" d="M1021.11 100.925H1033.28V35.4822H1021.11V100.925Z" fill="#666666"/>
<path fill-rule="evenodd" clip-rule="evenodd" d="M1090.91 49.1841C1093.19 52.3027 1094.41 57.1022 1094.41 63.7427V100.925H1106.58V61.1405C1106.58 52.5474 1104.72 45.8216 1100.83 41.115C1096.93 36.3352 1091.3 33.9953 1084.12 33.9953C1075.64 33.9953 1068.92 37.3744 1064.04 44.0618V35.4822H1051.87V100.925H1064.04V63.7427C1064.04 58.1203 1065.63 53.5535 1068.76 49.9637C1071.91 46.3399 1075.86 44.5451 1080.65 44.5451C1085.32 44.5451 1088.68 46.1241 1090.91 49.1841Z" fill="#666666"/>
<path fill-rule="evenodd" clip-rule="evenodd" d="M1123.93 113.467L1125.41 114.292C1132.45 118.195 1139.11 120.114 1145.39 120.114C1153.03 120.114 1158.58 118.086 1162.24 114.202C1165.91 110.306 1167.83 104.37 1167.83 96.2074V92.2156C1162.84 99.0044 1155.79 102.412 1146.75 102.412C1138.59 102.412 1131.94 99.4917 1126.9 93.6379L1126.89 93.6319C1121.9 87.7468 1119.46 79.9165 1119.46 70.248C1119.46 59.3113 1122.08 50.4946 1127.44 43.9062L1127.44 43.9032C1132.86 37.2862 1140.26 33.9953 1149.54 33.9953C1157.39 33.9953 1163.52 36.7953 1167.83 42.3988V35.4822H1180V94.8444C1180 106.636 1177.18 115.665 1171.35 121.743C1165.52 127.83 1156.84 130.787 1145.51 130.787C1137.53 130.787 1130.51 129.276 1124.47 126.218L1123.93 125.941V113.467ZM1162.96 49.6255L1162.95 49.6211C1159.76 46.2346 1155.79 44.5451 1150.97 44.5451C1144.97 44.5451 1140.35 46.7167 1137 51.0346L1137 51.0381C1133.63 55.3445 1131.88 61.4778 1131.88 69.5665C1131.88 76.4694 1133.53 81.886 1136.74 85.916C1139.98 89.8832 1144.21 91.8619 1149.54 91.8619C1154.98 91.8619 1159.33 89.9481 1162.68 86.1306L1162.69 86.1263C1166.09 82.2916 1167.83 77.3576 1167.83 71.2393V61.884C1167.83 57.0978 1166.21 53.0299 1162.96 49.6255Z" fill="#666666"/>
<path d="M1038 15.5C1038 21.299 1033.3 26 1027.5 26C1021.7 26 1017 21.299 1017 15.5C1017 9.70101 1021.7 5 1027.5 5C1033.3 5 1038 9.70101 1038 15.5Z" fill="#50D82E"/>
<rect x="551" width="8" height="225" fill="#666666"/>
<path d="M120.444 53.6426C127.411 63.5638 131.081 78.7548 131.081 99.5614V220H168.872V90.8897C168.872 63.9205 162.278 42.5052 150.373 27.8367C138.348 12.8905 121.096 6 99 6C72.626 6 52.268 16.7784 37.1591 38.135V6H0V220H37.1591V99.5614C37.1591 81.9424 42.2447 67.0984 51.8871 55.8422C61.6232 44.4961 74.1364 38.8504 88.9561 38.8504C103.323 38.8504 113.611 43.9112 120.444 53.6426Z" fill="#4472C4"/>
<path fill-rule="evenodd" clip-rule="evenodd" d="M300.648 208.682C308.627 204.01 316.008 198.529 321.929 190.201V220H359.722V6H321.929V128.128C321.929 146.042 317.13 160.277 307.768 171.12L307.766 171.122C298.544 181.82 286.828 187.15 272.382 187.15C257.296 187.15 246.431 182.191 239.224 172.634C231.901 162.923 227.994 147.997 227.994 127.352V6H190.848V132.395C190.848 160.926 196.734 181.965 209.104 195.868C221.535 209.838 237.704 220 261.5 220C275.399 220 290.5 214.623 300.648 208.682Z" fill="#4472C4"/>
<path d="M384.487 168.545L379.703 164.957V206.963L381.306 207.819C396.585 215.974 414.085 220 434.612 220C445.12 220 455.118 218.301 464.566 215.936C474.049 213.563 482.626 210.384 490.152 205.337C497.648 200.31 503.636 193.968 508.078 186.323C512.73 178.538 515 169.445 515 159.16C515 150.818 513.61 143.45 510.718 137.147C507.995 130.939 504.053 125.497 498.923 120.834C493.851 116.096 487.761 111.941 480.687 108.349C473.698 104.672 465.833 101.141 457.098 97.7503C450.626 95.1739 444.86 92.7943 439.799 90.6111C434.875 88.487 430.766 86.1451 427.432 83.6075C424.172 81.1253 421.739 78.3483 420.059 75.293C418.568 72.3543 417.74 68.5483 417.74 63.7366C417.74 60.0697 418.523 56.8302 420.043 53.9545C421.73 50.8764 424.036 48.24 426.999 46.0375C430.106 43.823 433.844 42.0903 438.262 40.8783L438.298 40.8684L438.334 40.8576C442.723 39.5333 447.714 38.8504 453.338 38.8504C471.533 38.8504 487.512 43.4901 501.375 52.7049L506.019 55.7921V15.9761L504.224 15.1778C490.412 9.03621 474.833 6 457.542 6C447.731 6 438.171 7.26178 428.868 9.78861L428.858 9.79146C419.646 12.3292 411.374 16.1489 404.068 21.2693C396.709 26.2979 390.797 32.6353 386.365 40.2651C381.845 47.9159 379.703 56.6814 379.703 66.4519C379.703 74.3426 380.754 81.3941 383.088 87.5246L383.099 87.5525L383.11 87.5801C385.552 93.6389 389.079 99.0728 393.67 103.87L393.7 103.902L393.732 103.932C398.416 108.551 404.122 112.715 410.811 116.442L410.842 116.459L410.873 116.476C417.605 120.024 425.343 123.557 434.078 127.077L434.089 127.081L434.1 127.086C440.314 129.531 446.078 131.91 451.391 134.222L451.43 134.239L451.47 134.255C456.77 136.381 461.261 138.794 464.977 141.47L464.995 141.483L465.013 141.496C468.795 144.135 471.672 147.138 473.718 150.484L473.751 150.537L473.785 150.588C475.803 153.606 476.898 157.44 476.898 162.263C476.898 170.688 473.857 176.658 467.915 180.679C461.758 184.845 452.144 187.15 438.625 187.15C418.796 187.15 401.072 180.982 384.487 168.545Z" fill="#4472C4"/>
</svg>
