<svg width="1197" height="225" viewBox="0 0 1197 225" fill="none" xmlns="http://www.w3.org/2000/svg">
<path d="M1188.49 27.467C1187.02 27.467 1185.77 26.9543 1184.72 25.9289C1183.69 24.9035 1183.17 23.6642 1183.17 22.2111C1183.17 20.7639 1183.69 19.5217 1184.72 18.4846C1185.77 17.4474 1187.02 16.9289 1188.49 16.9289C1189.96 16.9289 1191.21 17.4474 1192.26 18.4846C1193.3 19.5217 1193.82 20.7639 1193.82 22.2111C1193.82 23.6642 1193.3 24.9035 1192.26 25.9289C1191.21 26.9543 1189.96 27.467 1188.49 27.467ZM1188.5 17.8078C1187.3 17.8078 1186.26 18.2414 1185.4 19.1086C1184.54 19.9758 1184.12 21.0129 1184.12 22.2199C1184.12 23.4269 1184.54 24.4582 1185.4 25.3137C1186.26 26.1633 1187.3 26.5881 1188.5 26.5881C1189.71 26.5881 1190.75 26.1633 1191.6 25.3137C1192.45 24.4582 1192.87 23.4269 1192.87 22.2199C1192.87 21.0129 1192.45 19.9758 1191.6 19.1086C1190.75 18.2414 1189.71 17.8078 1188.5 17.8078ZM1191.22 25.4631H1189.66L1189.02 23.9338C1188.69 23.1721 1188.34 22.7912 1187.96 22.7912H1187.57V25.4631H1186.3V18.8537H1188.29C1189.12 18.8537 1189.75 19.0148 1190.2 19.3371C1190.64 19.6594 1190.87 20.0988 1190.87 20.6555C1190.87 21.1066 1190.73 21.4933 1190.45 21.8156C1190.18 22.132 1189.78 22.3459 1189.25 22.4572V22.4836C1189.62 22.5598 1189.98 22.967 1190.35 23.7053L1191.22 25.4631ZM1187.57 19.9084V21.7892H1188.29C1189.11 21.7892 1189.51 21.4728 1189.51 20.84C1189.51 20.5178 1189.4 20.2834 1189.18 20.1369C1188.96 19.9846 1188.62 19.9084 1188.15 19.9084H1187.57Z" fill="#666666"/>
<path d="M642.552 199.329L642.806 199.185V198.894V173.548V173.048H642.306H623.512H623.012V173.548V179.475V179.975H623.512H635.256V194.851C632.2 196.453 628.589 197.263 624.409 197.263C618.155 197.263 613.255 195.29 609.648 191.381C606.037 187.442 604.204 182.012 604.204 175.03C604.204 168.271 606.172 162.811 610.075 158.604C613.977 154.397 618.975 152.291 625.111 152.291C631.218 152.291 636.477 153.701 640.908 156.503L641.676 156.988V156.08V148.827V148.512L641.391 148.376C637.172 146.36 631.986 145.364 625.852 145.364C617.332 145.364 610.26 148.191 604.674 153.857L604.674 153.857C599.112 159.499 596.341 166.727 596.341 175.498C596.341 184.075 598.831 191.018 603.849 196.275L603.85 196.276C608.895 201.534 615.491 204.151 623.59 204.151C630.533 204.151 636.857 202.545 642.552 199.329ZM674.989 169.656L675.794 170.273V169.259V162.631V162.296L675.484 162.168C674.511 161.768 673.16 161.585 671.473 161.585C669.034 161.585 666.829 162.424 664.873 164.081C663.419 165.293 662.253 166.857 661.367 168.761V162.787V162.287H660.867H654.472H653.972V162.787V202.715V203.215H654.472H660.867H661.367V202.715V182.361C661.367 177.979 662.264 174.583 664.004 172.123C665.772 169.657 667.918 168.473 670.459 168.473C672.506 168.473 673.993 168.891 674.989 169.656ZM684.404 198.417L684.407 198.419C688.051 202.251 692.908 204.151 698.923 204.151C705.095 204.151 710.057 202.199 713.754 198.261C717.472 194.303 719.309 189.063 719.309 182.595C719.309 176.011 717.609 170.795 714.149 167.012C710.708 163.222 705.921 161.351 699.859 161.351C693.512 161.351 688.421 163.272 684.645 167.156C680.865 171.042 679.005 176.419 679.005 183.219C679.005 189.479 680.791 194.563 684.404 198.417ZM690.022 171.769L690.024 171.767C692.309 169.085 695.412 167.732 699.391 167.732C703.405 167.732 706.421 169.038 708.518 171.603L708.52 171.606C710.656 174.188 711.759 177.906 711.759 182.829C711.759 187.699 710.656 191.376 708.521 193.933L708.52 193.935C706.423 196.475 703.407 197.77 699.391 197.77C695.461 197.77 692.368 196.454 690.056 193.844C687.742 191.23 686.556 187.631 686.556 182.985C686.556 178.15 687.732 174.433 690.022 171.769ZM761.311 203.215H761.811V202.715V162.787V162.287H761.311H754.916H754.416V162.787V185.792C754.416 189.415 753.431 192.305 751.499 194.509L751.499 194.509C749.595 196.685 747.173 197.77 744.193 197.77C741.088 197.77 738.834 196.762 737.338 194.807C735.822 192.827 735.023 189.798 735.023 185.636V162.787V162.287H734.523H728.168H727.668V162.787V186.65C727.668 192.375 728.867 196.761 731.352 199.722C733.852 202.699 737.579 204.151 742.439 204.151C745.294 204.151 747.802 203.529 749.945 202.268C751.698 201.237 753.187 199.788 754.416 197.935V202.715V203.215H754.916H761.311ZM780.651 221.58H781.151V221.08V198.339C783.996 202.203 787.884 204.151 792.778 204.151C798.553 204.151 803.147 202.093 806.502 197.961L806.503 197.96C809.842 193.818 811.487 188.342 811.487 181.581C811.487 175.497 810.025 170.592 807.048 166.917C804.056 163.198 799.888 161.351 794.611 161.351C788.854 161.351 784.353 163.692 781.151 168.339V162.787V162.287H780.651H774.257H773.757V162.787V221.08V221.58H774.257H780.651ZM800.721 193.526L800.72 193.528C798.636 196.356 795.761 197.77 792.037 197.77C788.867 197.77 786.272 196.678 784.214 194.497C782.174 192.281 781.151 189.598 781.151 186.416V180.84C781.151 177.044 782.249 173.931 784.419 171.461L784.421 171.459C786.579 168.978 789.426 167.732 793.012 167.732C796.384 167.732 799.018 168.935 800.969 171.33C802.927 173.734 803.937 177.092 803.937 181.464C803.937 186.678 802.844 190.679 800.721 193.526Z" fill="#666666" stroke="#666666"/>
<mask id="path-3-outside-1" maskUnits="userSpaceOnUse" x="591" y="5.07141" width="588" height="126" fill="black">
<rect fill="white" x="591" y="5.07141" width="588" height="126"/>
<path d="M658.295 96.2825C651.728 99.7522 643.549 101.487 633.76 101.487C621.12 101.487 611.001 97.4184 603.4 89.2813C595.8 81.1441 592 70.4666 592 57.2489C592 43.0398 596.275 31.5569 604.825 22.8001C613.376 14.0434 624.218 9.66499 637.353 9.66499C645.78 9.66499 652.76 10.8835 658.295 13.3205V24.411C651.934 20.8588 644.912 19.0826 637.229 19.0826C627.027 19.0826 618.745 22.4903 612.384 29.3057C606.065 36.1211 602.905 45.229 602.905 56.6293C602.905 67.4513 605.858 76.0842 611.765 82.5278C617.713 88.9302 625.499 92.1313 635.123 92.1313C644.045 92.1313 651.769 90.1487 658.295 86.1833V96.2825Z"/>
<path d="M701.542 101.487C692.166 101.487 684.669 98.5337 679.051 92.627C673.475 86.679 670.687 78.8103 670.687 69.0209C670.687 58.3641 673.599 50.0411 679.423 44.0518C685.247 38.0625 693.116 35.0678 703.029 35.0678C712.488 35.0678 719.861 37.9799 725.148 43.8039C730.477 49.628 733.141 57.7032 733.141 68.0296C733.141 78.1494 730.27 86.266 724.529 92.3792C718.828 98.4511 711.166 101.487 701.542 101.487ZM702.286 43.6181C695.759 43.6181 690.596 45.8486 686.796 50.3096C682.996 54.7292 681.096 60.8424 681.096 68.6492C681.096 76.1668 683.017 82.0941 686.858 86.4312C690.699 90.7682 695.842 92.9368 702.286 92.9368C708.853 92.9368 713.892 90.8096 717.403 86.5551C720.956 82.3006 722.732 76.2494 722.732 68.4013C722.732 60.4707 720.956 54.3575 717.403 50.0617C713.892 45.766 708.853 43.6181 702.286 43.6181Z"/>
<path d="M802.038 100H791.877V63.8164C791.877 50.3509 786.962 43.6181 777.131 43.6181C772.051 43.6181 767.837 45.5388 764.492 49.3802C761.187 53.1803 759.535 57.9924 759.535 63.8164V100H749.374V36.5548H759.535V47.0877H759.783C764.574 39.0745 771.514 35.0678 780.601 35.0678C787.54 35.0678 792.848 37.319 796.524 41.8213C800.2 46.2823 802.038 52.7466 802.038 61.2142V100Z"/>
<path d="M817.404 97.7076V86.8029C822.939 90.8922 829.031 92.9368 835.682 92.9368C844.604 92.9368 849.065 89.9628 849.065 84.0148C849.065 82.3213 848.672 80.8962 847.887 79.7397C847.144 78.5418 846.111 77.4885 844.789 76.5798C843.509 75.6711 841.981 74.8657 840.204 74.1635C838.47 73.42 836.59 72.6558 834.566 71.871C831.758 70.7558 829.279 69.6405 827.131 68.5253C825.025 67.3687 823.249 66.0882 821.803 64.6839C820.399 63.2382 819.325 61.6066 818.581 59.7892C817.879 57.9717 817.528 55.8445 817.528 53.4075C817.528 50.4335 818.209 47.8106 819.572 45.5388C820.936 43.2257 822.753 41.305 825.025 39.7767C827.297 38.2071 829.878 37.0299 832.77 36.245C835.702 35.4602 838.717 35.0678 841.815 35.0678C847.309 35.0678 852.224 36.0179 856.561 37.9179V48.203C851.894 45.1464 846.524 43.6181 840.452 43.6181C838.552 43.6181 836.838 43.8453 835.31 44.2996C833.781 44.7127 832.46 45.3116 831.344 46.0964C830.271 46.8812 829.424 47.8312 828.804 48.9465C828.226 50.0204 827.937 51.2183 827.937 52.5401C827.937 54.1923 828.226 55.576 828.804 56.6912C829.424 57.8065 830.312 58.7978 831.468 59.6652C832.625 60.5327 834.029 61.3175 835.682 62.0197C837.334 62.7218 839.213 63.486 841.32 64.3121C844.129 65.386 846.648 66.5013 848.879 67.6578C851.109 68.7731 853.009 70.0536 854.579 71.4993C856.148 72.9036 857.346 74.5352 858.172 76.394C859.04 78.2527 859.473 80.4625 859.473 83.0235C859.473 86.1627 858.771 88.8889 857.367 91.202C856.004 93.5151 854.166 95.4358 851.853 96.9641C849.54 98.4924 846.875 99.6283 843.86 100.372C840.845 101.115 837.685 101.487 834.38 101.487C827.854 101.487 822.195 100.227 817.404 97.7076Z"/>
<path d="M926.45 100H916.289V89.9628H916.041C911.828 97.6456 905.302 101.487 896.463 101.487C881.345 101.487 873.786 92.4824 873.786 74.4733V36.5548H883.885V72.8623C883.885 86.2453 889.007 92.9368 899.251 92.9368C904.207 92.9368 908.276 91.1193 911.456 87.4845C914.678 83.8083 916.289 79.0168 916.289 73.1102V36.5548H926.45V100Z"/>
<path d="M957.182 100H947.02V6.07141H957.182V100Z"/>
<path d="M1007.18 99.3804C1004.79 100.702 1001.63 101.363 997.702 101.363C986.591 101.363 981.035 95.1673 981.035 82.7756V45.229H970.131V36.5548H981.035V21.0653L991.197 17.7815V36.5548H1007.18V45.229H991.197V80.9789C991.197 85.2333 991.919 88.2693 993.365 90.0867C994.811 91.9042 997.207 92.8129 1000.55 92.8129C1003.11 92.8129 1005.32 92.1107 1007.18 90.7063V99.3804Z"/>
<path d="M1030.91 100H1020.75V36.5548H1030.91V100Z"/>
<path d="M1104.15 100H1093.99V63.8164C1093.99 50.3509 1089.07 43.6181 1079.24 43.6181C1074.16 43.6181 1069.95 45.5388 1066.6 49.3802C1063.3 53.1803 1061.64 57.9924 1061.64 63.8164V100H1051.48V36.5548H1061.64V47.0877H1061.89C1066.68 39.0745 1073.62 35.0678 1082.71 35.0678C1089.65 35.0678 1094.96 37.319 1098.63 41.8213C1102.31 46.2823 1104.15 52.7466 1104.15 61.2142V100Z"/>
<path d="M1177.5 94.9194C1177.5 118.216 1166.35 129.864 1144.05 129.864C1136.2 129.864 1129.34 128.377 1123.48 125.403V115.242C1130.62 119.207 1137.44 121.19 1143.92 121.19C1159.54 121.19 1167.34 112.887 1167.34 96.2825V89.3432H1167.1C1162.26 97.4391 1154.99 101.487 1145.29 101.487C1137.4 101.487 1131.04 98.6783 1126.2 93.0607C1121.41 87.4019 1119.02 79.8223 1119.02 70.3221C1119.02 59.5413 1121.6 50.9704 1126.76 44.6094C1131.97 38.2484 1139.07 35.0678 1148.07 35.0678C1156.62 35.0678 1162.97 38.4962 1167.1 45.3529H1167.34V36.5548H1177.5V94.9194ZM1167.34 71.3134V61.9577C1167.34 56.9184 1165.63 52.602 1162.2 49.0084C1158.81 45.4149 1154.58 43.6181 1149.5 43.6181C1143.22 43.6181 1138.31 45.9105 1134.75 50.4954C1131.2 55.039 1129.43 61.4207 1129.43 69.6405C1129.43 76.7037 1131.12 82.3626 1134.51 86.6171C1137.93 90.8302 1142.46 92.9368 1148.07 92.9368C1153.77 92.9368 1158.4 90.9128 1161.95 86.8649C1165.55 82.8169 1167.34 77.6331 1167.34 71.3134Z"/>
</mask>
<path d="M658.295 96.2825C651.728 99.7522 643.549 101.487 633.76 101.487C621.12 101.487 611.001 97.4184 603.4 89.2813C595.8 81.1441 592 70.4666 592 57.2489C592 43.0398 596.275 31.5569 604.825 22.8001C613.376 14.0434 624.218 9.66499 637.353 9.66499C645.78 9.66499 652.76 10.8835 658.295 13.3205V24.411C651.934 20.8588 644.912 19.0826 637.229 19.0826C627.027 19.0826 618.745 22.4903 612.384 29.3057C606.065 36.1211 602.905 45.229 602.905 56.6293C602.905 67.4513 605.858 76.0842 611.765 82.5278C617.713 88.9302 625.499 92.1313 635.123 92.1313C644.045 92.1313 651.769 90.1487 658.295 86.1833V96.2825Z" fill="#666666"/>
<path d="M701.542 101.487C692.166 101.487 684.669 98.5337 679.051 92.627C673.475 86.679 670.687 78.8103 670.687 69.0209C670.687 58.3641 673.599 50.0411 679.423 44.0518C685.247 38.0625 693.116 35.0678 703.029 35.0678C712.488 35.0678 719.861 37.9799 725.148 43.8039C730.477 49.628 733.141 57.7032 733.141 68.0296C733.141 78.1494 730.27 86.266 724.529 92.3792C718.828 98.4511 711.166 101.487 701.542 101.487ZM702.286 43.6181C695.759 43.6181 690.596 45.8486 686.796 50.3096C682.996 54.7292 681.096 60.8424 681.096 68.6492C681.096 76.1668 683.017 82.0941 686.858 86.4312C690.699 90.7682 695.842 92.9368 702.286 92.9368C708.853 92.9368 713.892 90.8096 717.403 86.5551C720.956 82.3006 722.732 76.2494 722.732 68.4013C722.732 60.4707 720.956 54.3575 717.403 50.0617C713.892 45.766 708.853 43.6181 702.286 43.6181Z" fill="#666666"/>
<path d="M802.038 100H791.877V63.8164C791.877 50.3509 786.962 43.6181 777.131 43.6181C772.051 43.6181 767.837 45.5388 764.492 49.3802C761.187 53.1803 759.535 57.9924 759.535 63.8164V100H749.374V36.5548H759.535V47.0877H759.783C764.574 39.0745 771.514 35.0678 780.601 35.0678C787.54 35.0678 792.848 37.319 796.524 41.8213C800.2 46.2823 802.038 52.7466 802.038 61.2142V100Z" fill="#666666"/>
<path d="M817.404 97.7076V86.8029C822.939 90.8922 829.031 92.9368 835.682 92.9368C844.604 92.9368 849.065 89.9628 849.065 84.0148C849.065 82.3213 848.672 80.8962 847.887 79.7397C847.144 78.5418 846.111 77.4885 844.789 76.5798C843.509 75.6711 841.981 74.8657 840.204 74.1635C838.47 73.42 836.59 72.6558 834.566 71.871C831.758 70.7558 829.279 69.6405 827.131 68.5253C825.025 67.3687 823.249 66.0882 821.803 64.6839C820.399 63.2382 819.325 61.6066 818.581 59.7892C817.879 57.9717 817.528 55.8445 817.528 53.4075C817.528 50.4335 818.209 47.8106 819.572 45.5388C820.936 43.2257 822.753 41.305 825.025 39.7767C827.297 38.2071 829.878 37.0299 832.77 36.245C835.702 35.4602 838.717 35.0678 841.815 35.0678C847.309 35.0678 852.224 36.0179 856.561 37.9179V48.203C851.894 45.1464 846.524 43.6181 840.452 43.6181C838.552 43.6181 836.838 43.8453 835.31 44.2996C833.781 44.7127 832.46 45.3116 831.344 46.0964C830.271 46.8812 829.424 47.8312 828.804 48.9465C828.226 50.0204 827.937 51.2183 827.937 52.5401C827.937 54.1923 828.226 55.576 828.804 56.6912C829.424 57.8065 830.312 58.7978 831.468 59.6652C832.625 60.5327 834.029 61.3175 835.682 62.0197C837.334 62.7218 839.213 63.486 841.32 64.3121C844.129 65.386 846.648 66.5013 848.879 67.6578C851.109 68.7731 853.009 70.0536 854.579 71.4993C856.148 72.9036 857.346 74.5352 858.172 76.394C859.04 78.2527 859.473 80.4625 859.473 83.0235C859.473 86.1627 858.771 88.8889 857.367 91.202C856.004 93.5151 854.166 95.4358 851.853 96.9641C849.54 98.4924 846.875 99.6283 843.86 100.372C840.845 101.115 837.685 101.487 834.38 101.487C827.854 101.487 822.195 100.227 817.404 97.7076Z" fill="#666666"/>
<path d="M926.45 100H916.289V89.9628H916.041C911.828 97.6456 905.302 101.487 896.463 101.487C881.345 101.487 873.786 92.4824 873.786 74.4733V36.5548H883.885V72.8623C883.885 86.2453 889.007 92.9368 899.251 92.9368C904.207 92.9368 908.276 91.1193 911.456 87.4845C914.678 83.8083 916.289 79.0168 916.289 73.1102V36.5548H926.45V100Z" fill="#666666"/>
<path d="M957.182 100H947.02V6.07141H957.182V100Z" fill="#666666"/>
<path d="M1007.18 99.3804C1004.79 100.702 1001.63 101.363 997.702 101.363C986.591 101.363 981.035 95.1673 981.035 82.7756V45.229H970.131V36.5548H981.035V21.0653L991.197 17.7815V36.5548H1007.18V45.229H991.197V80.9789C991.197 85.2333 991.919 88.2693 993.365 90.0867C994.811 91.9042 997.207 92.8129 1000.55 92.8129C1003.11 92.8129 1005.32 92.1107 1007.18 90.7063V99.3804Z" fill="#666666"/>
<path d="M1030.91 100H1020.75V36.5548H1030.91V100Z" fill="#666666"/>
<path d="M1104.15 100H1093.99V63.8164C1093.99 50.3509 1089.07 43.6181 1079.24 43.6181C1074.16 43.6181 1069.95 45.5388 1066.6 49.3802C1063.3 53.1803 1061.64 57.9924 1061.64 63.8164V100H1051.48V36.5548H1061.64V47.0877H1061.89C1066.68 39.0745 1073.62 35.0678 1082.71 35.0678C1089.65 35.0678 1094.96 37.319 1098.63 41.8213C1102.31 46.2823 1104.15 52.7466 1104.15 61.2142V100Z" fill="#666666"/>
<path d="M1177.5 94.9194C1177.5 118.216 1166.35 129.864 1144.05 129.864C1136.2 129.864 1129.34 128.377 1123.48 125.403V115.242C1130.62 119.207 1137.44 121.19 1143.92 121.19C1159.54 121.19 1167.34 112.887 1167.34 96.2825V89.3432H1167.1C1162.26 97.4391 1154.99 101.487 1145.29 101.487C1137.4 101.487 1131.04 98.6783 1126.2 93.0607C1121.41 87.4019 1119.02 79.8223 1119.02 70.3221C1119.02 59.5413 1121.6 50.9704 1126.76 44.6094C1131.97 38.2484 1139.07 35.0678 1148.07 35.0678C1156.62 35.0678 1162.97 38.4962 1167.1 45.3529H1167.34V36.5548H1177.5V94.9194ZM1167.34 71.3134V61.9577C1167.34 56.9184 1165.63 52.602 1162.2 49.0084C1158.81 45.4149 1154.58 43.6181 1149.5 43.6181C1143.22 43.6181 1138.31 45.9105 1134.75 50.4954C1131.2 55.039 1129.43 61.4207 1129.43 69.6405C1129.43 76.7037 1131.12 82.3626 1134.51 86.6171C1137.93 90.8302 1142.46 92.9368 1148.07 92.9368C1153.77 92.9368 1158.4 90.9128 1161.95 86.8649C1165.55 82.8169 1167.34 77.6331 1167.34 71.3134Z" fill="#666666"/>
<path d="M658.295 96.2825C651.728 99.7522 643.549 101.487 633.76 101.487C621.12 101.487 611.001 97.4184 603.4 89.2813C595.8 81.1441 592 70.4666 592 57.2489C592 43.0398 596.275 31.5569 604.825 22.8001C613.376 14.0434 624.218 9.66499 637.353 9.66499C645.78 9.66499 652.76 10.8835 658.295 13.3205V24.411C651.934 20.8588 644.912 19.0826 637.229 19.0826C627.027 19.0826 618.745 22.4903 612.384 29.3057C606.065 36.1211 602.905 45.229 602.905 56.6293C602.905 67.4513 605.858 76.0842 611.765 82.5278C617.713 88.9302 625.499 92.1313 635.123 92.1313C644.045 92.1313 651.769 90.1487 658.295 86.1833V96.2825Z" stroke="#666666" stroke-width="2" mask="url(#path-3-outside-1)"/>
<path d="M701.542 101.487C692.166 101.487 684.669 98.5337 679.051 92.627C673.475 86.679 670.687 78.8103 670.687 69.0209C670.687 58.3641 673.599 50.0411 679.423 44.0518C685.247 38.0625 693.116 35.0678 703.029 35.0678C712.488 35.0678 719.861 37.9799 725.148 43.8039C730.477 49.628 733.141 57.7032 733.141 68.0296C733.141 78.1494 730.27 86.266 724.529 92.3792C718.828 98.4511 711.166 101.487 701.542 101.487ZM702.286 43.6181C695.759 43.6181 690.596 45.8486 686.796 50.3096C682.996 54.7292 681.096 60.8424 681.096 68.6492C681.096 76.1668 683.017 82.0941 686.858 86.4312C690.699 90.7682 695.842 92.9368 702.286 92.9368C708.853 92.9368 713.892 90.8096 717.403 86.5551C720.956 82.3006 722.732 76.2494 722.732 68.4013C722.732 60.4707 720.956 54.3575 717.403 50.0617C713.892 45.766 708.853 43.6181 702.286 43.6181Z" stroke="#666666" stroke-width="2" mask="url(#path-3-outside-1)"/>
<path d="M802.038 100H791.877V63.8164C791.877 50.3509 786.962 43.6181 777.131 43.6181C772.051 43.6181 767.837 45.5388 764.492 49.3802C761.187 53.1803 759.535 57.9924 759.535 63.8164V100H749.374V36.5548H759.535V47.0877H759.783C764.574 39.0745 771.514 35.0678 780.601 35.0678C787.54 35.0678 792.848 37.319 796.524 41.8213C800.2 46.2823 802.038 52.7466 802.038 61.2142V100Z" stroke="#666666" stroke-width="2" mask="url(#path-3-outside-1)"/>
<path d="M817.404 97.7076V86.8029C822.939 90.8922 829.031 92.9368 835.682 92.9368C844.604 92.9368 849.065 89.9628 849.065 84.0148C849.065 82.3213 848.672 80.8962 847.887 79.7397C847.144 78.5418 846.111 77.4885 844.789 76.5798C843.509 75.6711 841.981 74.8657 840.204 74.1635C838.47 73.42 836.59 72.6558 834.566 71.871C831.758 70.7558 829.279 69.6405 827.131 68.5253C825.025 67.3687 823.249 66.0882 821.803 64.6839C820.399 63.2382 819.325 61.6066 818.581 59.7892C817.879 57.9717 817.528 55.8445 817.528 53.4075C817.528 50.4335 818.209 47.8106 819.572 45.5388C820.936 43.2257 822.753 41.305 825.025 39.7767C827.297 38.2071 829.878 37.0299 832.77 36.245C835.702 35.4602 838.717 35.0678 841.815 35.0678C847.309 35.0678 852.224 36.0179 856.561 37.9179V48.203C851.894 45.1464 846.524 43.6181 840.452 43.6181C838.552 43.6181 836.838 43.8453 835.31 44.2996C833.781 44.7127 832.46 45.3116 831.344 46.0964C830.271 46.8812 829.424 47.8312 828.804 48.9465C828.226 50.0204 827.937 51.2183 827.937 52.5401C827.937 54.1923 828.226 55.576 828.804 56.6912C829.424 57.8065 830.312 58.7978 831.468 59.6652C832.625 60.5327 834.029 61.3175 835.682 62.0197C837.334 62.7218 839.213 63.486 841.32 64.3121C844.129 65.386 846.648 66.5013 848.879 67.6578C851.109 68.7731 853.009 70.0536 854.579 71.4993C856.148 72.9036 857.346 74.5352 858.172 76.394C859.04 78.2527 859.473 80.4625 859.473 83.0235C859.473 86.1627 858.771 88.8889 857.367 91.202C856.004 93.5151 854.166 95.4358 851.853 96.9641C849.54 98.4924 846.875 99.6283 843.86 100.372C840.845 101.115 837.685 101.487 834.38 101.487C827.854 101.487 822.195 100.227 817.404 97.7076Z" stroke="#666666" stroke-width="2" mask="url(#path-3-outside-1)"/>
<path d="M926.45 100H916.289V89.9628H916.041C911.828 97.6456 905.302 101.487 896.463 101.487C881.345 101.487 873.786 92.4824 873.786 74.4733V36.5548H883.885V72.8623C883.885 86.2453 889.007 92.9368 899.251 92.9368C904.207 92.9368 908.276 91.1193 911.456 87.4845C914.678 83.8083 916.289 79.0168 916.289 73.1102V36.5548H926.45V100Z" stroke="#666666" stroke-width="2" mask="url(#path-3-outside-1)"/>
<path d="M957.182 100H947.02V6.07141H957.182V100Z" stroke="#666666" stroke-width="2" mask="url(#path-3-outside-1)"/>
<path d="M1007.18 99.3804C1004.79 100.702 1001.63 101.363 997.702 101.363C986.591 101.363 981.035 95.1673 981.035 82.7756V45.229H970.131V36.5548H981.035V21.0653L991.197 17.7815V36.5548H1007.18V45.229H991.197V80.9789C991.197 85.2333 991.919 88.2693 993.365 90.0867C994.811 91.9042 997.207 92.8129 1000.55 92.8129C1003.11 92.8129 1005.32 92.1107 1007.18 90.7063V99.3804Z" stroke="#666666" stroke-width="2" mask="url(#path-3-outside-1)"/>
<path d="M1030.91 100H1020.75V36.5548H1030.91V100Z" stroke="#666666" stroke-width="2" mask="url(#path-3-outside-1)"/>
<path d="M1104.15 100H1093.99V63.8164C1093.99 50.3509 1089.07 43.6181 1079.24 43.6181C1074.16 43.6181 1069.95 45.5388 1066.6 49.3802C1063.3 53.1803 1061.64 57.9924 1061.64 63.8164V100H1051.48V36.5548H1061.64V47.0877H1061.89C1066.68 39.0745 1073.62 35.0678 1082.71 35.0678C1089.65 35.0678 1094.96 37.319 1098.63 41.8213C1102.31 46.2823 1104.15 52.7466 1104.15 61.2142V100Z" stroke="#666666" stroke-width="2" mask="url(#path-3-outside-1)"/>
<path d="M1177.5 94.9194C1177.5 118.216 1166.35 129.864 1144.05 129.864C1136.2 129.864 1129.34 128.377 1123.48 125.403V115.242C1130.62 119.207 1137.44 121.19 1143.92 121.19C1159.54 121.19 1167.34 112.887 1167.34 96.2825V89.3432H1167.1C1162.26 97.4391 1154.99 101.487 1145.29 101.487C1137.4 101.487 1131.04 98.6783 1126.2 93.0607C1121.41 87.4019 1119.02 79.8223 1119.02 70.3221C1119.02 59.5413 1121.6 50.9704 1126.76 44.6094C1131.97 38.2484 1139.07 35.0678 1148.07 35.0678C1156.62 35.0678 1162.97 38.4962 1167.1 45.3529H1167.34V36.5548H1177.5V94.9194ZM1167.34 71.3134V61.9577C1167.34 56.9184 1165.63 52.602 1162.2 49.0084C1158.81 45.4149 1154.58 43.6181 1149.5 43.6181C1143.22 43.6181 1138.31 45.9105 1134.75 50.4954C1131.2 55.039 1129.43 61.4207 1129.43 69.6405C1129.43 76.7037 1131.12 82.3626 1134.51 86.6171C1137.93 90.8302 1142.46 92.9368 1148.07 92.9368C1153.77 92.9368 1158.4 90.9128 1161.95 86.8649C1165.55 82.8169 1167.34 77.6331 1167.34 71.3134Z" stroke="#666666" stroke-width="2" mask="url(#path-3-outside-1)"/>
<path d="M1036.18 14.5C1036.18 20.299 1031.47 25 1025.68 25C1019.88 25 1015.18 20.299 1015.18 14.5C1015.18 8.70101 1019.88 4 1025.68 4C1031.47 4 1036.18 8.70101 1036.18 14.5Z" fill="#50D82E"/>
<path d="M552 0V225" stroke="#666666" stroke-width="5"/>
<path d="M165.872 211.505H167.372V210.005V90.6996C167.372 64.3354 160.833 43.5945 149.21 29.4787C137.529 15.1636 121.448 8.5 99.7006 8.5C72.2015 8.5 50.649 20.2274 35.6591 43.564V14.3012V12.8012H34.1591H3H1.5V14.3012V210.005V211.505H3H34.1591H35.6591V210.005V99.2498C35.6591 81.5759 40.8385 66.5728 50.7552 55.1592C60.7825 43.6373 73.7119 37.8899 88.9561 37.8899C103.719 37.8899 114.504 43.0472 121.666 53.1046C128.895 63.2556 132.581 78.6021 132.581 99.2498V210.005V211.505H134.081H165.872ZM356.722 211.505H358.222V210.005V14.3012V12.8012H356.722H324.929H323.429V14.3012V127.416C323.429 145.363 318.546 159.775 308.896 170.794L308.896 170.794C299.38 181.678 287.248 187.11 272.382 187.11C256.941 187.11 245.585 182.084 238.032 172.209C230.422 162.258 226.494 147.155 226.494 126.651V14.3012V12.8012H224.994H193.848H192.348V14.3012V131.623C192.348 159.585 198.205 179.889 210.218 193.201C222.261 206.547 240.23 212.581 263.783 212.581C277.548 212.581 289.646 210.579 299.986 205.494C309.314 200.908 317.127 193.854 323.429 183.674V210.005V211.505H324.929H356.722ZM381.203 203.335V204.241L382.005 204.662C397.032 212.571 414.285 216.5 434.612 216.5C444.962 216.5 454.833 214.85 464.207 212.537C473.598 210.22 481.995 207.138 489.324 202.291C496.64 197.454 502.469 191.363 506.791 184.024C511.283 176.617 513.5 167.928 513.5 158.013C513.5 149.949 512.137 142.906 509.353 136.931C506.718 131.001 502.899 125.8 497.914 121.334C492.958 116.767 486.983 112.743 480.007 109.252C473.073 105.654 465.255 102.192 456.556 98.8626C450.071 96.3176 444.29 93.9652 439.212 91.8053C434.202 89.6745 429.982 87.3088 426.532 84.7192C423.118 82.1566 420.532 79.2576 418.737 76.0303C417.1 72.8609 416.24 68.8495 416.24 63.9272C416.24 60.078 417.078 56.6312 418.731 53.5552C420.53 50.3186 422.987 47.5543 426.123 45.2583C429.396 42.9552 433.304 41.1765 437.87 39.9414L437.888 39.9365L437.906 39.9312C442.457 38.5771 447.596 37.8899 453.338 37.8899C471.799 37.8899 488.068 42.5358 502.197 51.7956L504.519 53.3176V50.541V18.7966V17.8165L503.621 17.4229C490.028 11.4629 474.659 8.5 457.542 8.5C447.86 8.5 438.43 9.72761 429.256 12.1844L429.251 12.1859C420.187 14.6481 412.07 18.3478 404.914 23.2944C397.73 28.1323 391.972 34.2211 387.654 41.5529C383.292 48.8302 381.203 57.1988 381.203 66.6045C381.203 74.2554 382.238 81.0145 384.487 86.8415L384.493 86.8553L384.498 86.8689C386.866 92.6606 390.285 97.8573 394.747 102.453L394.762 102.469L394.777 102.484C399.349 106.928 404.941 110.957 411.534 114.58L411.549 114.588L411.564 114.596C418.243 118.066 425.933 121.529 434.632 124.985L434.643 124.99C440.871 127.407 446.651 129.759 451.983 132.046L452.002 132.054L452.022 132.062C457.411 134.194 462.013 136.626 465.845 139.348L465.854 139.354L465.864 139.361C469.793 142.064 472.823 145.17 474.993 148.668L475.009 148.694L475.026 148.72C477.245 151.992 478.398 156.081 478.398 161.073C478.398 169.815 475.158 176.201 468.748 180.478C462.23 184.827 452.263 187.11 438.625 187.11C418.456 187.11 400.423 180.914 383.595 168.472L381.203 166.704V169.678V203.335Z" fill="#345DA6" stroke="#345DA6" stroke-width="3"/>
</svg>
