<svg width="186" height="34" viewBox="0 0 186 34" fill="none" xmlns="http://www.w3.org/2000/svg">
<path d="M184.678 4.15053C184.449 4.15053 184.255 4.07305 184.092 3.91811C183.932 3.76316 183.851 3.57588 183.851 3.3563C183.851 3.13762 183.932 2.94991 184.092 2.79319C184.255 2.63646 184.449 2.55811 184.678 2.55811C184.906 2.55811 185.1 2.63646 185.263 2.79319C185.425 2.94991 185.506 3.13762 185.506 3.3563C185.506 3.57588 185.425 3.76316 185.263 3.91811C185.1 4.07305 184.906 4.15053 184.678 4.15053ZM184.679 2.69092C184.493 2.69092 184.331 2.75644 184.197 2.88748C184.064 3.01853 183.999 3.17524 183.999 3.35763C183.999 3.54003 184.064 3.69587 184.197 3.82514C184.331 3.95353 184.493 4.01772 184.679 4.01772C184.867 4.01772 185.029 3.95353 185.161 3.82514C185.293 3.69587 185.358 3.54003 185.358 3.35763C185.358 3.17524 185.293 3.01853 185.161 2.88748C185.029 2.75644 184.867 2.69092 184.679 2.69092ZM185.102 3.84772H184.859L184.76 3.61662C184.709 3.50152 184.654 3.44396 184.595 3.44396H184.535V3.84772H184.337V2.84896H184.647C184.776 2.84896 184.873 2.87331 184.943 2.92201C185.012 2.97071 185.047 3.03711 185.047 3.12124C185.047 3.1894 185.026 3.24784 184.982 3.29654C184.94 3.34435 184.878 3.37667 184.796 3.39349V3.39748C184.853 3.409 184.909 3.47053 184.967 3.58209L185.102 3.84772ZM184.535 3.00834V3.29255H184.647C184.774 3.29255 184.836 3.24474 184.836 3.14912C184.836 3.10043 184.819 3.06501 184.785 3.04287C184.751 3.01986 184.698 3.00834 184.625 3.00834H184.535Z" fill="#666666"/>
<path d="M99.8452 30.121L99.8846 30.0993V30.0553V26.2252V26.1497H99.807H96.8866H96.8089V26.2252V27.1209V27.1964H96.8866H98.7115V29.4443C98.2366 29.6864 97.6755 29.8088 97.026 29.8088C96.0542 29.8088 95.2928 29.5107 94.7323 28.92C94.1712 28.3248 93.8863 27.5042 93.8863 26.4492C93.8863 25.4278 94.1921 24.6027 94.7986 23.967C95.405 23.3313 96.1816 23.0131 97.135 23.0131C98.084 23.0131 98.9012 23.2261 99.5897 23.6495L99.7091 23.7228V23.5856V22.4896V22.442L99.6648 22.4215C99.0092 22.1168 98.2033 21.9663 97.2502 21.9663C95.9263 21.9663 94.8274 22.3935 93.9594 23.2497C93.0951 24.1023 92.6645 25.1945 92.6645 26.5199C92.6645 27.816 93.0514 28.8651 93.8312 29.6595L93.8313 29.6597C94.6153 30.4542 95.6402 30.8497 96.8987 30.8497C97.9776 30.8497 98.9602 30.607 99.8452 30.121ZM104.886 25.6371L105.011 25.7303V25.5771V24.5755V24.5249L104.962 24.5056C104.811 24.4451 104.601 24.4175 104.339 24.4175C103.96 24.4175 103.618 24.5443 103.314 24.7947C103.088 24.9778 102.906 25.2141 102.769 25.5019V24.5991V24.5236H102.691H101.697H101.62V24.5991V30.6327V30.7082H101.697H102.691H102.769V30.6327V27.557C102.769 26.8948 102.908 26.3816 103.179 26.0099C103.453 25.6373 103.787 25.4583 104.182 25.4583C104.5 25.4583 104.731 25.5215 104.886 25.6371ZM106.348 29.9832L106.349 29.9835C106.915 30.5626 107.67 30.8497 108.605 30.8497C109.564 30.8497 110.335 30.5547 110.909 29.9596C111.487 29.3615 111.772 28.5697 111.772 27.5923C111.772 26.5974 111.508 25.8092 110.971 25.2376C110.436 24.6649 109.692 24.3821 108.75 24.3821C107.764 24.3821 106.973 24.6724 106.386 25.2593C105.799 25.8465 105.51 26.6591 105.51 27.6866C105.51 28.6326 105.787 29.4008 106.348 29.9832ZM107.221 25.9564L107.222 25.9561C107.577 25.5508 108.059 25.3464 108.677 25.3464C109.301 25.3464 109.77 25.5437 110.096 25.9313L110.096 25.9318C110.428 26.3219 110.599 26.8838 110.599 27.6277C110.599 28.3636 110.428 28.9192 110.096 29.3056L110.096 29.3059C109.77 29.6897 109.301 29.8854 108.677 29.8854C108.067 29.8854 107.586 29.6866 107.227 29.2922C106.867 28.8972 106.683 28.3533 106.683 27.6513C106.683 26.9206 106.866 26.359 107.221 25.9564ZM118.299 30.7082H118.377V30.6327V24.5991V24.5236H118.299H117.305H117.228V24.5991V28.0754C117.228 28.6229 117.074 29.0596 116.774 29.3927C116.478 29.7215 116.102 29.8854 115.639 29.8854C115.157 29.8854 114.806 29.7331 114.574 29.4377C114.338 29.1385 114.214 28.6808 114.214 28.0519V24.5991V24.5236H114.136H113.149H113.071V24.5991V28.2051C113.071 29.0702 113.258 29.733 113.644 30.1804C114.032 30.6303 114.611 30.8497 115.366 30.8497C115.81 30.8497 116.2 30.7557 116.533 30.5651C116.805 30.4093 117.037 30.1904 117.228 29.9104V30.6327V30.7082H117.305H118.299ZM121.304 33.4834H121.382V33.4078V29.9714C121.824 30.5553 122.428 30.8497 123.189 30.8497C124.086 30.8497 124.8 30.5387 125.321 29.9143L125.321 29.9142C125.84 29.2882 126.096 28.4608 126.096 27.4391C126.096 26.5197 125.869 25.7785 125.406 25.2232C124.941 24.6612 124.293 24.3821 123.473 24.3821C122.579 24.3821 121.879 24.7359 121.382 25.4381V24.5991V24.5236H121.304H120.311H120.233V24.5991V33.4078V33.4834H120.311H121.304ZM124.423 29.2441L124.423 29.2444C124.099 29.6718 123.652 29.8854 123.073 29.8854C122.581 29.8854 122.178 29.7204 121.858 29.3909C121.541 29.056 121.382 28.6506 121.382 28.1697V27.3271C121.382 26.7535 121.552 26.2831 121.89 25.9099L121.89 25.9096C122.225 25.5346 122.668 25.3464 123.225 25.3464C123.749 25.3464 124.158 25.5281 124.461 25.8901C124.766 26.2533 124.923 26.7608 124.923 27.4214C124.923 28.2093 124.753 28.8139 124.423 29.2441Z" fill="#666666"/>
<path d="M102.291 14.5493C101.271 15.0736 100 15.3358 98.479 15.3358C96.5149 15.3358 94.9425 14.721 93.7614 13.4914C92.5805 12.2617 91.99 10.6482 91.99 8.65091C91.99 6.50375 92.6543 4.76856 93.9829 3.44531C95.3116 2.12208 96.9963 1.46045 99.0373 1.46045C100.347 1.46045 101.431 1.64458 102.291 2.01284V3.68873C101.303 3.15196 100.212 2.88355 99.0181 2.88355C97.4328 2.88355 96.1459 3.3985 95.1574 4.42838C94.1755 5.45826 93.6845 6.83457 93.6845 8.55728C93.6845 10.1926 94.1434 11.4971 95.0612 12.4708C95.9855 13.4383 97.1954 13.922 98.6908 13.922C100.077 13.922 101.277 13.6224 102.291 13.0232V14.5493Z" fill="black"/>
<path d="M109.012 15.336C107.555 15.336 106.39 14.8897 105.517 13.9971C104.65 13.0983 104.217 11.9093 104.217 10.43C104.217 8.81964 104.67 7.56195 105.575 6.6569C106.479 5.75185 107.702 5.29932 109.243 5.29932C110.712 5.29932 111.858 5.73937 112.68 6.61944C113.508 7.49952 113.922 8.71978 113.922 10.2802C113.922 11.8094 113.476 13.0359 112.583 13.9597C111.698 14.8772 110.507 15.336 109.012 15.336ZM109.127 6.59136C108.113 6.59136 107.311 6.92841 106.72 7.60252C106.13 8.27037 105.834 9.19414 105.834 10.3738C105.834 11.5098 106.133 12.4055 106.73 13.0609C107.327 13.7163 108.126 14.044 109.127 14.044C110.148 14.044 110.931 13.7225 111.476 13.0796C112.028 12.4367 112.304 11.5223 112.304 10.3364C112.304 9.13798 112.028 8.2142 111.476 7.56506C110.931 6.91593 110.148 6.59136 109.127 6.59136Z" fill="black"/>
<path d="M124.627 15.1113H123.049V9.64355C123.049 7.60876 122.285 6.59136 120.757 6.59136C119.968 6.59136 119.313 6.8816 118.793 7.46208C118.28 8.03632 118.023 8.76348 118.023 9.64355V15.1113H116.444V5.52402H118.023V7.11566H118.062C118.806 5.90477 119.884 5.29932 121.296 5.29932C122.375 5.29932 123.199 5.6395 123.771 6.31985C124.342 6.99395 124.627 7.97078 124.627 9.25033V15.1113Z" fill="black"/>
<path d="M127.015 14.7649V13.1171C127.875 13.735 128.822 14.044 129.855 14.044C131.242 14.044 131.935 13.5946 131.935 12.6958C131.935 12.4398 131.874 12.2245 131.752 12.0497C131.636 11.8687 131.476 11.7096 131.27 11.5722C131.072 11.4349 130.834 11.3132 130.558 11.2071C130.289 11.0948 129.996 10.9793 129.682 10.8607C129.246 10.6922 128.86 10.5236 128.527 10.3551C128.199 10.1803 127.923 9.98684 127.699 9.77464C127.481 9.55618 127.314 9.30962 127.198 9.03499C127.089 8.76035 127.034 8.43891 127.034 8.07065C127.034 7.62124 127.14 7.22489 127.352 6.8816C127.564 6.53207 127.846 6.24183 128.199 6.01088C128.552 5.7737 128.953 5.59581 129.403 5.4772C129.858 5.35861 130.327 5.29932 130.808 5.29932C131.662 5.29932 132.426 5.44289 133.1 5.73V7.28419C132.375 6.8223 131.54 6.59136 130.597 6.59136C130.301 6.59136 130.035 6.62569 129.798 6.69434C129.56 6.75677 129.355 6.84727 129.181 6.96586C129.015 7.08445 128.883 7.22801 128.787 7.39654C128.697 7.55882 128.652 7.73984 128.652 7.93957C128.652 8.18924 128.697 8.39833 128.787 8.56685C128.883 8.73539 129.021 8.88518 129.201 9.01626C129.38 9.14734 129.599 9.26594 129.855 9.37205C130.112 9.47814 130.404 9.59362 130.731 9.71845C131.168 9.88073 131.559 10.0493 131.906 10.224C132.253 10.3926 132.548 10.5861 132.792 10.8045C133.036 11.0167 133.222 11.2633 133.35 11.5442C133.485 11.825 133.552 12.159 133.552 12.546C133.552 13.0203 133.443 13.4323 133.225 13.7818C133.013 14.1314 132.728 14.4216 132.368 14.6525C132.009 14.8835 131.595 15.0551 131.126 15.1675C130.658 15.2798 130.167 15.336 129.653 15.336C128.639 15.336 127.76 15.1456 127.015 14.7649Z" fill="black"/>
<path d="M143.96 15.1112H142.381V13.5945H142.342C141.688 14.7554 140.674 15.3359 139.3 15.3359C136.951 15.3359 135.776 13.9752 135.776 11.2538V5.52393H137.346V11.0104C137.346 13.0327 138.141 14.0439 139.733 14.0439C140.503 14.0439 141.136 13.7692 141.63 13.22C142.13 12.6645 142.381 11.9404 142.381 11.0479V5.52393H143.96V15.1112Z" fill="black"/>
<path d="M148.735 15.1111H147.156V0.91748H148.735V15.1111Z" fill="black"/>
<path d="M156.504 15.0175C156.133 15.2172 155.642 15.3171 155.031 15.3171C153.305 15.3171 152.442 14.3809 152.442 12.5083V6.83463H150.747V5.52387H152.442V3.18323L154.021 2.68701V5.52387H156.504V6.83463H154.021V12.2368C154.021 12.8797 154.133 13.3385 154.357 13.6131C154.582 13.8878 154.954 14.0251 155.474 14.0251C155.872 14.0251 156.215 13.919 156.504 13.7068V15.0175Z" fill="black"/>
<path d="M160.192 15.1112H158.613V5.52393H160.192V15.1112Z" fill="black"/>
<path d="M171.572 15.1113H169.993V9.64355C169.993 7.60876 169.229 6.59136 167.701 6.59136C166.912 6.59136 166.258 6.8816 165.737 7.46208C165.225 8.03632 164.967 8.76348 164.967 9.64355V15.1113H163.388V5.52402H164.967V7.11566H165.005C165.75 5.90477 166.828 5.29932 168.241 5.29932C169.319 5.29932 170.144 5.6395 170.714 6.31985C171.286 6.99395 171.572 7.97078 171.572 9.25033V15.1113Z" fill="black"/>
<path d="M182.97 14.3436C182.97 17.8639 181.237 19.6241 177.772 19.6241C176.552 19.6241 175.486 19.3994 174.576 18.95V17.4145C175.685 18.0137 176.745 18.3133 177.752 18.3133C180.179 18.3133 181.391 17.0587 181.391 14.5495V13.5009H181.354C180.602 14.7243 179.472 15.336 177.965 15.336C176.739 15.336 175.751 14.9116 174.998 14.0627C174.254 13.2076 173.883 12.0622 173.883 10.6266C173.883 8.99754 174.284 7.70238 175.086 6.74116C175.895 5.77994 176.998 5.29932 178.397 5.29932C179.725 5.29932 180.712 5.81739 181.354 6.85351H181.391V5.52402H182.97V14.3436ZM181.391 10.7764V9.36268C181.391 8.60119 181.125 7.94893 180.592 7.4059C180.066 6.86288 179.408 6.59136 178.619 6.59136C177.643 6.59136 176.88 6.93777 176.327 7.6306C175.775 8.31719 175.5 9.28153 175.5 10.5236C175.5 11.591 175.763 12.4461 176.29 13.089C176.821 13.7256 177.525 14.044 178.397 14.044C179.283 14.044 180.002 13.7381 180.554 13.1264C181.113 12.5147 181.391 11.7314 181.391 10.7764Z" fill="black"/>
<path d="M102.291 14.5493C101.271 15.0736 100 15.3358 98.479 15.3358C96.5149 15.3358 94.9425 14.721 93.7614 13.4914C92.5805 12.2617 91.99 10.6482 91.99 8.65091C91.99 6.50375 92.6543 4.76856 93.9829 3.44531C95.3116 2.12208 96.9963 1.46045 99.0373 1.46045C100.347 1.46045 101.431 1.64458 102.291 2.01284V3.68873C101.303 3.15196 100.212 2.88355 99.0181 2.88355C97.4328 2.88355 96.1459 3.3985 95.1574 4.42838C94.1755 5.45826 93.6845 6.83457 93.6845 8.55728C93.6845 10.1926 94.1434 11.4971 95.0612 12.4708C95.9855 13.4383 97.1954 13.922 98.6908 13.922C100.077 13.922 101.277 13.6224 102.291 13.0232V14.5493Z" fill="#666666"/>
<path d="M109.012 15.336C107.555 15.336 106.39 14.8897 105.517 13.9971C104.65 13.0983 104.217 11.9093 104.217 10.43C104.217 8.81964 104.67 7.56195 105.575 6.6569C106.479 5.75185 107.702 5.29932 109.243 5.29932C110.712 5.29932 111.858 5.73937 112.68 6.61944C113.508 7.49952 113.922 8.71978 113.922 10.2802C113.922 11.8094 113.476 13.0359 112.583 13.9597C111.698 14.8772 110.507 15.336 109.012 15.336ZM109.127 6.59136C108.113 6.59136 107.311 6.92841 106.72 7.60252C106.13 8.27037 105.834 9.19414 105.834 10.3738C105.834 11.5098 106.133 12.4055 106.73 13.0609C107.327 13.7163 108.126 14.044 109.127 14.044C110.148 14.044 110.931 13.7225 111.476 13.0796C112.028 12.4367 112.304 11.5223 112.304 10.3364C112.304 9.13798 112.028 8.2142 111.476 7.56506C110.931 6.91593 110.148 6.59136 109.127 6.59136Z" fill="#666666"/>
<path d="M124.627 15.1113H123.049V9.64355C123.049 7.60876 122.285 6.59136 120.757 6.59136C119.968 6.59136 119.313 6.8816 118.793 7.46208C118.28 8.03632 118.023 8.76348 118.023 9.64355V15.1113H116.444V5.52402H118.023V7.11566H118.062C118.806 5.90477 119.884 5.29932 121.296 5.29932C122.375 5.29932 123.199 5.6395 123.771 6.31985C124.342 6.99395 124.627 7.97078 124.627 9.25033V15.1113Z" fill="#666666"/>
<path d="M127.015 14.7649V13.1171C127.875 13.735 128.822 14.044 129.855 14.044C131.242 14.044 131.935 13.5946 131.935 12.6958C131.935 12.4398 131.874 12.2245 131.752 12.0497C131.636 11.8687 131.476 11.7096 131.27 11.5722C131.072 11.4349 130.834 11.3132 130.558 11.2071C130.289 11.0948 129.996 10.9793 129.682 10.8607C129.246 10.6922 128.86 10.5236 128.527 10.3551C128.199 10.1803 127.923 9.98684 127.699 9.77464C127.481 9.55618 127.314 9.30962 127.198 9.03499C127.089 8.76035 127.034 8.43891 127.034 8.07065C127.034 7.62124 127.14 7.22489 127.352 6.8816C127.564 6.53207 127.846 6.24183 128.199 6.01088C128.552 5.7737 128.953 5.59581 129.403 5.4772C129.858 5.35861 130.327 5.29932 130.808 5.29932C131.662 5.29932 132.426 5.44289 133.1 5.73V7.28419C132.375 6.8223 131.54 6.59136 130.597 6.59136C130.301 6.59136 130.035 6.62569 129.798 6.69434C129.56 6.75677 129.355 6.84727 129.181 6.96586C129.015 7.08445 128.883 7.22801 128.787 7.39654C128.697 7.55882 128.652 7.73984 128.652 7.93957C128.652 8.18924 128.697 8.39833 128.787 8.56685C128.883 8.73539 129.021 8.88518 129.201 9.01626C129.38 9.14734 129.599 9.26594 129.855 9.37205C130.112 9.47814 130.404 9.59362 130.731 9.71845C131.168 9.88073 131.559 10.0493 131.906 10.224C132.253 10.3926 132.548 10.5861 132.792 10.8045C133.036 11.0167 133.222 11.2633 133.35 11.5442C133.485 11.825 133.552 12.159 133.552 12.546C133.552 13.0203 133.443 13.4323 133.225 13.7818C133.013 14.1314 132.728 14.4216 132.368 14.6525C132.009 14.8835 131.595 15.0551 131.126 15.1675C130.658 15.2798 130.167 15.336 129.653 15.336C128.639 15.336 127.76 15.1456 127.015 14.7649Z" fill="#666666"/>
<path d="M143.96 15.1112H142.381V13.5945H142.342C141.688 14.7554 140.674 15.3359 139.3 15.3359C136.951 15.3359 135.776 13.9752 135.776 11.2538V5.52393H137.346V11.0104C137.346 13.0327 138.141 14.0439 139.733 14.0439C140.503 14.0439 141.136 13.7692 141.63 13.22C142.13 12.6645 142.381 11.9404 142.381 11.0479V5.52393H143.96V15.1112Z" fill="#666666"/>
<path d="M148.735 15.1111H147.156V0.91748H148.735V15.1111Z" fill="#666666"/>
<path d="M156.504 15.0175C156.133 15.2172 155.642 15.3171 155.031 15.3171C153.305 15.3171 152.442 14.3809 152.442 12.5083V6.83463H150.747V5.52387H152.442V3.18323L154.021 2.68701V5.52387H156.504V6.83463H154.021V12.2368C154.021 12.8797 154.133 13.3385 154.357 13.6131C154.582 13.8878 154.954 14.0251 155.474 14.0251C155.872 14.0251 156.215 13.919 156.504 13.7068V15.0175Z" fill="#666666"/>
<path d="M160.192 15.1112H158.613V5.52393H160.192V15.1112Z" fill="#666666"/>
<path d="M171.572 15.1113H169.993V9.64355C169.993 7.60876 169.229 6.59136 167.701 6.59136C166.912 6.59136 166.258 6.8816 165.737 7.46208C165.225 8.03632 164.967 8.76348 164.967 9.64355V15.1113H163.388V5.52402H164.967V7.11566H165.005C165.75 5.90477 166.828 5.29932 168.241 5.29932C169.319 5.29932 170.144 5.6395 170.714 6.31985C171.286 6.99395 171.572 7.97078 171.572 9.25033V15.1113Z" fill="#666666"/>
<path d="M182.97 14.3436C182.97 17.8639 181.237 19.6241 177.772 19.6241C176.552 19.6241 175.486 19.3994 174.576 18.95V17.4145C175.685 18.0137 176.745 18.3133 177.752 18.3133C180.179 18.3133 181.391 17.0587 181.391 14.5495V13.5009H181.354C180.602 14.7243 179.472 15.336 177.965 15.336C176.739 15.336 175.751 14.9116 174.998 14.0627C174.254 13.2076 173.883 12.0622 173.883 10.6266C173.883 8.99754 174.284 7.70238 175.086 6.74116C175.895 5.77994 176.998 5.29932 178.397 5.29932C179.725 5.29932 180.712 5.81739 181.354 6.85351H181.391V5.52402H182.97V14.3436ZM181.391 10.7764V9.36268C181.391 8.60119 181.125 7.94893 180.592 7.4059C180.066 6.86288 179.408 6.59136 178.619 6.59136C177.643 6.59136 176.88 6.93777 176.327 7.6306C175.775 8.31719 175.5 9.28153 175.5 10.5236C175.5 11.591 175.763 12.4461 176.29 13.089C176.821 13.7256 177.525 14.044 178.397 14.044C179.283 14.044 180.002 13.7381 180.554 13.1264C181.113 12.5147 181.391 11.7314 181.391 10.7764Z" fill="#666666"/>
<path d="M161.01 2.19116C161.01 3.06745 160.279 3.77783 159.379 3.77783C158.478 3.77783 157.747 3.06745 157.747 2.19116C157.747 1.31487 158.478 0.604492 159.379 0.604492C160.279 0.604492 161.01 1.31487 161.01 2.19116Z" fill="#50D82E"/>
<path fill-rule="evenodd" clip-rule="evenodd" d="M85.386 34V0H86.1629V34H85.386Z" fill="#666666"/>
<path d="M25.7746 31.961H26.0077V31.7343V13.7059C26.0077 9.72202 24.9916 6.58784 23.1855 4.45478C21.3704 2.29161 18.8716 1.28467 15.4923 1.28467C11.2193 1.28467 7.87028 3.05681 5.54102 6.58323V2.16129V1.93463H5.30794H0.466176H0.233093V2.16129V31.7343V31.961H0.466176H5.30794H5.54102V31.7343V14.998C5.54102 12.3272 6.34584 10.0601 7.88678 8.33539C9.44491 6.5943 11.454 5.72581 13.8228 5.72581C16.1167 5.72581 17.7926 6.50513 18.9055 8.02492C20.0288 9.55885 20.6016 11.8779 20.6016 14.998V31.7343V31.961H20.8347H25.7746ZM55.4305 31.961H55.6636V31.7343V2.16129V1.93463H55.4305H50.4902H50.2571V2.16129V19.2542C50.2571 21.9662 49.4984 24.144 47.9989 25.8091C46.5202 27.4538 44.635 28.2746 42.325 28.2746C39.9257 28.2746 38.1611 27.5151 36.9874 26.0229C35.8049 24.5192 35.1946 22.237 35.1946 19.1386V2.16129V1.93463H34.9615H30.1218H29.8887V2.16129V19.8899C29.8887 24.1153 30.7988 27.1835 32.6655 29.195C34.5368 31.2118 37.329 32.1236 40.9888 32.1236C43.1278 32.1236 45.0077 31.8211 46.6144 31.0527C48.0638 30.3597 49.2779 29.2937 50.2571 27.7554V31.7343V31.961H50.4902H55.4305ZM59.2346 30.7264V30.8633L59.3592 30.9269C61.6942 32.1221 64.3751 32.7158 67.5337 32.7158C69.142 32.7158 70.6758 32.4664 72.1324 32.1169C73.5917 31.7668 74.8965 31.3011 76.0353 30.5686C77.1721 29.8377 78.0779 28.9173 78.7495 27.8083C79.4475 26.689 79.792 25.376 79.792 23.8777C79.792 22.6592 79.5802 21.5949 79.1476 20.692C78.7381 19.7959 78.1447 19.01 77.3701 18.3351C76.6 17.645 75.6715 17.0369 74.5876 16.5094C73.5101 15.9657 72.2953 15.4426 70.9435 14.9395C69.9359 14.5549 69.0376 14.1994 68.2485 13.873C67.47 13.551 66.8143 13.1936 66.2782 12.8022C65.7477 12.415 65.3458 11.9769 65.0669 11.4892C64.8125 11.0103 64.6789 10.4041 64.6789 9.66033C64.6789 9.07868 64.8091 8.55783 65.066 8.09301C65.3455 7.60392 65.7273 7.18621 66.2146 6.83926C66.7232 6.49123 67.3305 6.22245 68.04 6.03581L68.0428 6.03507L68.0455 6.03427C68.7527 5.82965 69.5513 5.72581 70.4435 5.72581C73.3121 5.72581 75.8401 6.42786 78.0356 7.82711L78.3964 8.05711V7.63753V2.8406V2.69249L78.2569 2.63302C76.1447 1.73239 73.7565 1.28467 71.0968 1.28467C69.5923 1.28467 68.127 1.47017 66.7014 1.84142L66.7007 1.84165C65.2922 2.21371 64.0309 2.77278 62.919 3.52027C61.8027 4.25133 60.9079 5.17141 60.237 6.27933C59.5592 7.37901 59.2346 8.6436 59.2346 10.0649C59.2346 11.221 59.3954 12.2424 59.7449 13.1229L59.7458 13.125L59.7466 13.1271C60.1145 14.0023 60.6458 14.7875 61.3391 15.482L61.3415 15.4844L61.3438 15.4867C62.0542 16.1582 62.9232 16.7671 63.9476 17.3145L63.95 17.3157L63.9523 17.317C64.9901 17.8413 66.1851 18.3646 67.5368 18.8868L67.5385 18.8876C68.5063 19.2528 69.4044 19.6083 70.233 19.9538L70.2359 19.955L70.239 19.9563C71.0764 20.2784 71.7915 20.6459 72.3869 21.0573L72.3883 21.0582L72.3899 21.0592C73.0004 21.4677 73.4713 21.937 73.8084 22.4656L73.8109 22.4695L73.8136 22.4735C74.1584 22.9679 74.3375 23.5858 74.3375 24.3401C74.3375 25.6612 73.8341 26.6262 72.838 27.2725C71.8252 27.9296 70.2765 28.2746 68.1573 28.2746C65.0232 28.2746 62.2211 27.3383 59.6062 25.4582L59.2346 25.191V25.6405V30.7264Z" fill="#345DA6"/>
</svg>
