<svg width="130" height="30" viewBox="0 0 130 30" fill="none" xmlns="http://www.w3.org/2000/svg">
<g clip-path="url(#clip0_103_20)">
<path d="M16.4671 17.1287V23.0454C16.4671 23.8772 16.6684 24.4944 17.0709 24.8968C17.4823 25.2993 18.0503 25.5006 18.7747 25.5006C19.4903 25.5006 20.0493 25.2993 20.4518 24.8968C20.8632 24.4944 21.0689 23.8772 21.0689 23.0454V17.1287H22.2898V23.032C22.2898 23.8101 22.1333 24.4675 21.8203 25.0042C21.5072 25.5319 21.0824 25.9254 20.5457 26.1848C20.018 26.4442 19.4232 26.5739 18.7613 26.5739C18.0994 26.5739 17.5002 26.4442 16.9635 26.1848C16.4358 25.9254 16.0154 25.5319 15.7024 25.0042C15.3983 24.4675 15.2462 23.8101 15.2462 23.032V17.1287H16.4671ZM29.8541 24.4004H25.7755L25.0242 26.48H23.7362L27.1171 17.1824H28.5258L31.8934 26.48H30.6054L29.8541 24.4004ZM29.5052 23.4076L27.8148 18.685L26.1243 23.4076H29.5052ZM34.5878 25.4872H37.8614V26.48H33.3669V17.1287H34.5878V25.4872ZM40.3788 18.1216V21.2476H43.7866V22.2538H40.3788V25.4737H44.1891V26.48H39.1579V17.1153H44.1891V18.1216H40.3788ZM49.0015 26.5739C48.3843 26.5739 47.8298 26.4666 47.3379 26.2519C46.8549 26.0283 46.4747 25.7242 46.1975 25.3396C45.9202 24.946 45.7771 24.4944 45.7681 23.9845H47.0695C47.1142 24.4228 47.2931 24.794 47.6062 25.0981C47.9282 25.3933 48.3933 25.5408 49.0015 25.5408C49.5829 25.5408 50.039 25.3977 50.37 25.1115C50.7098 24.8163 50.8798 24.4407 50.8798 23.9845C50.8798 23.6268 50.7814 23.3361 50.5846 23.1125C50.3878 22.8889 50.1419 22.7189 49.8467 22.6026C49.5516 22.4864 49.1535 22.3611 48.6527 22.227C48.0355 22.066 47.5391 21.905 47.1634 21.744C46.7967 21.583 46.4792 21.3326 46.2109 20.9927C45.9515 20.6438 45.8218 20.1787 45.8218 19.5974C45.8218 19.0875 45.9515 18.6359 46.2109 18.2423C46.4703 17.8488 46.8325 17.5447 47.2976 17.33C47.7716 17.1153 48.3128 17.008 48.921 17.008C49.7975 17.008 50.5131 17.2271 51.0676 17.6654C51.6311 18.1037 51.9486 18.685 52.0202 19.4095H50.6785C50.6338 19.0518 50.446 18.7387 50.115 18.4704C49.7841 18.1931 49.3458 18.0545 48.8002 18.0545C48.2904 18.0545 47.8745 18.1886 47.5525 18.457C47.2305 18.7164 47.0695 19.0831 47.0695 19.5571C47.0695 19.897 47.1634 20.1743 47.3513 20.3889C47.548 20.6036 47.7851 20.7691 48.0623 20.8853C48.3486 20.9927 48.7466 21.1179 49.2564 21.261C49.8736 21.4309 50.37 21.6009 50.7456 21.7708C51.1213 21.9318 51.4433 22.1867 51.7116 22.5356C51.9799 22.8754 52.1141 23.3405 52.1141 23.9309C52.1141 24.387 51.9933 24.8163 51.7518 25.2188C51.5104 25.6213 51.1526 25.9478 50.6785 26.1982C50.2045 26.4487 49.6455 26.5739 49.0015 26.5739ZM53.4546 21.7977C53.4546 20.8853 53.6603 20.0669 54.0717 19.3425C54.4832 18.609 55.0422 18.0366 55.7488 17.6252C56.4643 17.2137 57.2559 17.008 58.1235 17.008C59.1431 17.008 60.0331 17.254 60.7934 17.7459C61.5536 18.2378 62.1082 18.9355 62.457 19.8389H60.9946C60.7352 19.2754 60.3596 18.8416 59.8676 18.5375C59.3846 18.2334 58.8033 18.0813 58.1235 18.0813C57.4706 18.0813 56.8847 18.2334 56.3659 18.5375C55.8472 18.8416 55.4402 19.2754 55.145 19.8389C54.8499 20.3934 54.7023 21.0463 54.7023 21.7977C54.7023 22.54 54.8499 23.193 55.145 23.7564C55.4402 24.311 55.8472 24.7403 56.3659 25.0444C56.8847 25.3485 57.4706 25.5006 58.1235 25.5006C58.8033 25.5006 59.3846 25.353 59.8676 25.0578C60.3596 24.7537 60.7352 24.3199 60.9946 23.7564H62.457C62.1082 24.6509 61.5536 25.3441 60.7934 25.836C60.0331 26.319 59.1431 26.5605 58.1235 26.5605C57.2559 26.5605 56.4643 26.3592 55.7488 25.9567C55.0422 25.5453 54.4832 24.9773 54.0717 24.2529C53.6603 23.5284 53.4546 22.71 53.4546 21.7977ZM65.4953 18.1216V21.2476H68.9031V22.2538H65.4953V25.4737H69.3055V26.48H64.2744V17.1153H69.3055V18.1216H65.4953ZM74.2736 22.7771C74.2736 22.0257 74.4256 21.3683 74.7298 20.8048C75.0339 20.2324 75.4498 19.7897 75.9775 19.4766C76.5141 19.1636 77.1134 19.007 77.7753 19.007C78.4103 19.007 78.9649 19.1501 79.4389 19.4364C79.9219 19.7136 80.2752 20.058 80.4988 20.4694V19.1278H81.7331V29.9682H80.4988V25.1249C80.2663 25.5364 79.9085 25.8852 79.4255 26.1714C78.9425 26.4576 78.379 26.6007 77.735 26.6007C77.091 26.6007 76.5052 26.4397 75.9775 26.1177C75.4498 25.7957 75.0339 25.3441 74.7298 24.7627C74.4256 24.1813 74.2736 23.5194 74.2736 22.7771ZM80.4988 22.7905C80.4988 22.2359 80.387 21.7529 80.1634 21.3415C79.9398 20.9301 79.6357 20.617 79.2511 20.4023C78.8754 20.1787 78.4595 20.0669 78.0034 20.0669C77.5472 20.0669 77.1313 20.1743 76.7556 20.3889C76.38 20.6036 76.0803 20.9166 75.8567 21.3281C75.6331 21.7395 75.5213 22.2225 75.5213 22.7771C75.5213 23.3405 75.6331 23.8325 75.8567 24.2529C76.0803 24.6643 76.38 24.9818 76.7556 25.2054C77.1313 25.4201 77.5472 25.5274 78.0034 25.5274C78.4595 25.5274 78.8754 25.4201 79.2511 25.2054C79.6357 24.9818 79.9398 24.6643 80.1634 24.2529C80.387 23.8325 80.4988 23.345 80.4988 22.7905ZM85.0172 25.4872H88.2908V26.48H83.7963V17.1287H85.0172V25.4872ZM89.1312 22.7771C89.1312 22.0257 89.2833 21.3683 89.5874 20.8048C89.8915 20.2324 90.3074 19.7897 90.8351 19.4766C91.3718 19.1636 91.9666 19.007 92.6195 19.007C93.2635 19.007 93.8225 19.1457 94.2965 19.4229C94.7706 19.7002 95.1239 20.049 95.3564 20.4694V19.1278H96.5907V26.48H95.3564V25.1115C95.1149 25.5408 94.7527 25.8986 94.2697 26.1848C93.7957 26.4621 93.2411 26.6007 92.6061 26.6007C91.9531 26.6007 91.3628 26.4397 90.8351 26.1177C90.3074 25.7957 89.8915 25.3441 89.5874 24.7627C89.2833 24.1813 89.1312 23.5194 89.1312 22.7771ZM95.3564 22.7905C95.3564 22.2359 95.2446 21.7529 95.021 21.3415C94.7974 20.9301 94.4933 20.617 94.1087 20.4023C93.733 20.1787 93.3171 20.0669 92.861 20.0669C92.4048 20.0669 91.9889 20.1743 91.6133 20.3889C91.2376 20.6036 90.938 20.9166 90.7144 21.3281C90.4907 21.7395 90.3789 22.2225 90.3789 22.7771C90.3789 23.3405 90.4907 23.8325 90.7144 24.2529C90.938 24.6643 91.2376 24.9818 91.6133 25.2054C91.9889 25.4201 92.4048 25.5274 92.861 25.5274C93.3171 25.5274 93.733 25.4201 94.1087 25.2054C94.4933 24.9818 94.7974 24.6643 95.021 24.2529C95.2446 23.8325 95.3564 23.345 95.3564 22.7905ZM99.8748 20.4963C100.125 20.058 100.492 19.7002 100.975 19.4229C101.458 19.1457 102.008 19.007 102.625 19.007C103.287 19.007 103.882 19.1636 104.41 19.4766C104.937 19.7897 105.353 20.2324 105.657 20.8048C105.961 21.3683 106.113 22.0257 106.113 22.7771C106.113 23.5194 105.961 24.1813 105.657 24.7627C105.353 25.3441 104.933 25.7957 104.396 26.1177C103.868 26.4397 103.278 26.6007 102.625 26.6007C101.99 26.6007 101.431 26.4621 100.948 26.1848C100.474 25.9075 100.116 25.5542 99.8748 25.1249V26.48H98.6539V16.5518H99.8748V20.4963ZM104.866 22.7771C104.866 22.2225 104.754 21.7395 104.53 21.3281C104.307 20.9166 104.003 20.6036 103.618 20.3889C103.242 20.1743 102.826 20.0669 102.37 20.0669C101.923 20.0669 101.507 20.1787 101.123 20.4023C100.747 20.617 100.443 20.9345 100.21 21.3549C99.9866 21.7663 99.8748 22.2449 99.8748 22.7905C99.8748 23.345 99.9866 23.8325 100.21 24.2529C100.443 24.6643 100.747 24.9818 101.123 25.2054C101.507 25.4201 101.923 25.5274 102.37 25.5274C102.826 25.5274 103.242 25.4201 103.618 25.2054C104.003 24.9818 104.307 24.6643 104.53 24.2529C104.754 23.8325 104.866 23.3405 104.866 22.7771ZM110.323 26.6007C109.76 26.6007 109.254 26.5068 108.807 26.319C108.36 26.1222 108.007 25.8539 107.747 25.514C107.488 25.1652 107.345 24.7672 107.318 24.3199H108.579C108.615 24.6867 108.785 24.9863 109.089 25.2188C109.402 25.4514 109.809 25.5677 110.31 25.5677C110.775 25.5677 111.142 25.4648 111.41 25.2591C111.678 25.0534 111.812 24.794 111.812 24.4809C111.812 24.1589 111.669 23.9219 111.383 23.7699C111.097 23.6089 110.654 23.4523 110.055 23.3003C109.509 23.1572 109.062 23.0141 108.713 22.871C108.373 22.7189 108.078 22.4998 107.828 22.2136C107.586 21.9184 107.466 21.5338 107.466 21.0598C107.466 20.6841 107.577 20.3397 107.801 20.0267C108.025 19.7136 108.342 19.4677 108.754 19.2888C109.165 19.101 109.635 19.007 110.162 19.007C110.976 19.007 111.634 19.2128 112.134 19.6242C112.635 20.0356 112.904 20.5991 112.939 21.3147H111.719C111.692 20.9301 111.535 20.6215 111.249 20.3889C110.972 20.1564 110.596 20.0401 110.122 20.0401C109.684 20.0401 109.335 20.134 109.076 20.3218C108.816 20.5097 108.686 20.7556 108.686 21.0598C108.686 21.3012 108.763 21.5025 108.915 21.6635C109.076 21.8155 109.272 21.9408 109.505 22.0391C109.746 22.1286 110.077 22.2315 110.498 22.3477C111.025 22.4908 111.455 22.6339 111.786 22.7771C112.117 22.9112 112.398 23.1169 112.631 23.3942C112.872 23.6715 112.998 24.0337 113.007 24.4809C113.007 24.8834 112.895 25.2457 112.671 25.5677C112.448 25.8897 112.13 26.1446 111.719 26.3324C111.316 26.5113 110.851 26.6007 110.323 26.6007Z" fill="#284346"/>
<path d="M36.887 6.563C36.887 7.085 36.707 7.52 36.347 7.868C35.993 8.21 35.45 8.381 34.718 8.381H33.512V11H32.693V4.727H34.718C35.426 4.727 35.963 4.898 36.329 5.24C36.701 5.582 36.887 6.023 36.887 6.563ZM34.718 7.706C35.174 7.706 35.51 7.607 35.726 7.409C35.942 7.211 36.05 6.929 36.05 6.563C36.05 5.789 35.606 5.402 34.718 5.402H33.512V7.706H34.718ZM40.0559 11.081C39.5939 11.081 39.1739 10.976 38.7959 10.766C38.4239 10.556 38.1299 10.259 37.9139 9.875C37.7039 9.485 37.5989 9.035 37.5989 8.525C37.5989 8.021 37.7069 7.577 37.9229 7.193C38.1449 6.803 38.4449 6.506 38.8229 6.302C39.2009 6.092 39.6239 5.987 40.0919 5.987C40.5599 5.987 40.9829 6.092 41.3609 6.302C41.7389 6.506 42.0359 6.8 42.2519 7.184C42.4739 7.568 42.5849 8.015 42.5849 8.525C42.5849 9.035 42.4709 9.485 42.2429 9.875C42.0209 10.259 41.7179 10.556 41.3339 10.766C40.9499 10.976 40.5239 11.081 40.0559 11.081ZM40.0559 10.361C40.3499 10.361 40.6259 10.292 40.8839 10.154C41.1419 10.016 41.3489 9.809 41.5049 9.533C41.6669 9.257 41.7479 8.921 41.7479 8.525C41.7479 8.129 41.6699 7.793 41.5139 7.517C41.3579 7.241 41.1539 7.037 40.9019 6.905C40.6499 6.767 40.3769 6.698 40.0829 6.698C39.7829 6.698 39.5069 6.767 39.2549 6.905C39.0089 7.037 38.8109 7.241 38.6609 7.517C38.5109 7.793 38.4359 8.129 38.4359 8.525C38.4359 8.927 38.5079 9.266 38.6519 9.542C38.8019 9.818 38.9999 10.025 39.2459 10.163C39.4919 10.295 39.7619 10.361 40.0559 10.361ZM50.2318 6.068L48.6928 11H47.8468L46.6588 7.085L45.4708 11H44.6248L43.0768 6.068H43.9138L45.0478 10.208L46.2718 6.068H47.1088L48.3058 10.217L49.4218 6.068H50.2318ZM55.5446 8.345C55.5446 8.501 55.5356 8.666 55.5176 8.84H51.5756C51.6056 9.326 51.7706 9.707 52.0706 9.983C52.3766 10.253 52.7456 10.388 53.1776 10.388C53.5316 10.388 53.8256 10.307 54.0596 10.145C54.2996 9.977 54.4676 9.755 54.5636 9.479H55.4456C55.3136 9.953 55.0496 10.34 54.6536 10.64C54.2576 10.934 53.7656 11.081 53.1776 11.081C52.7096 11.081 52.2896 10.976 51.9176 10.766C51.5516 10.556 51.2636 10.259 51.0536 9.875C50.8436 9.485 50.7386 9.035 50.7386 8.525C50.7386 8.015 50.8406 7.568 51.0446 7.184C51.2486 6.8 51.5336 6.506 51.8996 6.302C52.2716 6.092 52.6976 5.987 53.1776 5.987C53.6456 5.987 54.0596 6.089 54.4196 6.293C54.7796 6.497 55.0556 6.779 55.2476 7.139C55.4456 7.493 55.5446 7.895 55.5446 8.345ZM54.6986 8.174C54.6986 7.862 54.6296 7.595 54.4916 7.373C54.3536 7.145 54.1646 6.974 53.9246 6.86C53.6906 6.74 53.4296 6.68 53.1416 6.68C52.7276 6.68 52.3736 6.812 52.0796 7.076C51.7916 7.34 51.6266 7.706 51.5846 8.174H54.6986ZM57.4446 6.869C57.5886 6.587 57.7926 6.368 58.0566 6.212C58.3266 6.056 58.6536 5.978 59.0376 5.978V6.824H58.8216C57.9036 6.824 57.4446 7.322 57.4446 8.318V11H56.6256V6.068H57.4446V6.869ZM64.483 8.345C64.483 8.501 64.474 8.666 64.456 8.84H60.514C60.544 9.326 60.709 9.707 61.009 9.983C61.315 10.253 61.684 10.388 62.116 10.388C62.47 10.388 62.764 10.307 62.998 10.145C63.238 9.977 63.406 9.755 63.502 9.479H64.384C64.252 9.953 63.988 10.34 63.592 10.64C63.196 10.934 62.704 11.081 62.116 11.081C61.648 11.081 61.228 10.976 60.856 10.766C60.49 10.556 60.202 10.259 59.992 9.875C59.782 9.485 59.677 9.035 59.677 8.525C59.677 8.015 59.779 7.568 59.983 7.184C60.187 6.8 60.472 6.506 60.838 6.302C61.21 6.092 61.636 5.987 62.116 5.987C62.584 5.987 62.998 6.089 63.358 6.293C63.718 6.497 63.994 6.779 64.186 7.139C64.384 7.493 64.483 7.895 64.483 8.345ZM63.637 8.174C63.637 7.862 63.568 7.595 63.43 7.373C63.292 7.145 63.103 6.974 62.863 6.86C62.629 6.74 62.368 6.68 62.08 6.68C61.666 6.68 61.312 6.812 61.018 7.076C60.73 7.34 60.565 7.706 60.523 8.174H63.637ZM65.2581 8.516C65.2581 8.012 65.3601 7.571 65.5641 7.193C65.7681 6.809 66.0471 6.512 66.4011 6.302C66.7611 6.092 67.1631 5.987 67.6071 5.987C67.9911 5.987 68.3481 6.077 68.6781 6.257C69.0081 6.431 69.2601 6.662 69.4341 6.95V4.34H70.2621V11H69.4341V10.073C69.2721 10.367 69.0321 10.61 68.7141 10.802C68.3961 10.988 68.0241 11.081 67.5981 11.081C67.1601 11.081 66.7611 10.973 66.4011 10.757C66.0471 10.541 65.7681 10.238 65.5641 9.848C65.3601 9.458 65.2581 9.014 65.2581 8.516ZM69.4341 8.525C69.4341 8.153 69.3591 7.829 69.2091 7.553C69.0591 7.277 68.8551 7.067 68.5971 6.923C68.3451 6.773 68.0661 6.698 67.7601 6.698C67.4541 6.698 67.1751 6.77 66.9231 6.914C66.6711 7.058 66.4701 7.268 66.3201 7.544C66.1701 7.82 66.0951 8.144 66.0951 8.516C66.0951 8.894 66.1701 9.224 66.3201 9.506C66.4701 9.782 66.6711 9.995 66.9231 10.145C67.1751 10.289 67.4541 10.361 67.7601 10.361C68.0661 10.361 68.3451 10.289 68.5971 10.145C68.8551 9.995 69.0591 9.782 69.2091 9.506C69.3591 9.224 69.4341 8.897 69.4341 8.525ZM74.8645 6.986C75.0325 6.692 75.2785 6.452 75.6025 6.266C75.9265 6.08 76.2955 5.987 76.7095 5.987C77.1535 5.987 77.5525 6.092 77.9065 6.302C78.2605 6.512 78.5395 6.809 78.7435 7.193C78.9475 7.571 79.0495 8.012 79.0495 8.516C79.0495 9.014 78.9475 9.458 78.7435 9.848C78.5395 10.238 78.2575 10.541 77.8975 10.757C77.5435 10.973 77.1475 11.081 76.7095 11.081C76.2835 11.081 75.9085 10.988 75.5845 10.802C75.2665 10.616 75.0265 10.379 74.8645 10.091V11H74.0455V4.34H74.8645V6.986ZM78.2125 8.516C78.2125 8.144 78.1375 7.82 77.9875 7.544C77.8375 7.268 77.6335 7.058 77.3755 6.914C77.1235 6.77 76.8445 6.698 76.5385 6.698C76.2385 6.698 75.9595 6.773 75.7015 6.923C75.4495 7.067 75.2455 7.28 75.0895 7.562C74.9395 7.838 74.8645 8.159 74.8645 8.525C74.8645 8.897 74.9395 9.224 75.0895 9.506C75.2455 9.782 75.4495 9.995 75.7015 10.145C75.9595 10.289 76.2385 10.361 76.5385 10.361C76.8445 10.361 77.1235 10.289 77.3755 10.145C77.6335 9.995 77.8375 9.782 77.9875 9.506C78.1375 9.224 78.2125 8.894 78.2125 8.516ZM84.3756 6.068L81.4056 13.322H80.5596L81.5316 10.946L79.5426 6.068H80.4516L81.9996 10.064L83.5296 6.068H84.3756Z" fill="#7B7B7B"/>
<path d="M11.5351 27.7714L9.66974 25.9061C9.21346 26.0313 8.74823 26.0939 8.27406 26.0939C7.40623 26.0939 6.61445 25.8926 5.89872 25.49C5.18299 25.0785 4.61487 24.5104 4.19438 23.7857C3.78283 23.0521 3.57706 22.229 3.57706 21.3164C3.57706 20.4039 3.78283 19.5852 4.19438 18.8606C4.61487 18.1269 5.18299 17.5588 5.89872 17.1562C6.61445 16.7447 7.40623 16.5389 8.27406 16.5389C9.15083 16.5389 9.94709 16.7447 10.6628 17.1562C11.3786 17.5588 11.9422 18.1225 12.3537 18.8471C12.7653 19.5718 12.9711 20.3949 12.9711 21.3164C12.9711 22.2111 12.7742 23.0163 12.3806 23.732C11.9869 24.4478 11.4457 25.0114 10.7568 25.4229L13.1187 27.7714H11.5351ZM4.82512 21.3164C4.82512 22.059 4.97274 22.7121 5.26798 23.2757C5.57217 23.8394 5.98371 24.2733 6.50262 24.5775C7.03047 24.8817 7.62095 25.0338 8.27406 25.0338C8.92717 25.0338 9.51317 24.8817 10.0321 24.5775C10.5599 24.2733 10.9715 23.8394 11.2667 23.2757C11.5709 22.7121 11.723 22.059 11.723 21.3164C11.723 20.5649 11.5709 19.9118 11.2667 19.3571C10.9715 18.7935 10.5644 18.3595 10.0455 18.0554C9.52659 17.7512 8.93611 17.5991 8.27406 17.5991C7.61201 17.5991 7.02153 17.7512 6.50262 18.0554C5.98371 18.3595 5.57217 18.7935 5.26798 19.3571C4.97274 19.9118 4.82512 20.5649 4.82512 21.3164Z" fill="#284346"/>
</g>
<defs>
<clipPath id="clip0_103_20">
<rect width="130" height="30" fill="white"/>
</clipPath>
</defs>
</svg>
